solid Exported from Blender-2.81 (sub 16)
facet normal -1.000000 0.000000 0.000000
outer loop
vertex 0.000000 -0.011378 -0.006600
vertex 0.000000 -0.011378 0.006600
vertex 0.000000 0.011378 0.006600
endloop
endfacet
facet normal -1.000000 0.000000 0.000000
outer loop
vertex 0.000000 -0.011378 -0.006600
vertex 0.000000 0.011378 0.006600
vertex 0.000000 0.011378 -0.006600
endloop
endfacet
facet normal 1.000000 0.000000 0.000000
outer loop
vertex -0.001000 -0.011378 -0.006600
vertex -0.001000 0.011378 -0.006600
vertex -0.001000 0.011378 0.006600
endloop
endfacet
facet normal 1.000000 0.000000 0.000000
outer loop
vertex -0.001000 -0.011378 -0.006600
vertex -0.001000 0.011378 0.006600
vertex -0.001000 -0.011378 0.006600
endloop
endfacet
facet normal 0.000000 0.000000 -1.000000
outer loop
vertex 0.000000 -0.011378 0.006600
vertex -0.001000 -0.011378 0.006600
vertex -0.001000 0.011378 0.006600
endloop
endfacet
facet normal 0.000000 0.000000 -1.000000
outer loop
vertex 0.000000 -0.011378 0.006600
vertex -0.001000 0.011378 0.006600
vertex 0.000000 0.011378 0.006600
endloop
endfacet
facet normal 0.000000 -1.000000 0.000000
outer loop
vertex 0.000000 0.011378 -0.006600
vertex 0.000000 0.011378 0.006600
vertex -0.001000 0.011378 0.006600
endloop
endfacet
facet normal 0.000000 -1.000000 0.000000
outer loop
vertex 0.000000 0.011378 -0.006600
vertex -0.001000 0.011378 0.006600
vertex -0.001000 0.011378 -0.006600
endloop
endfacet
facet normal 0.000000 0.000000 1.000000
outer loop
vertex 0.000000 -0.011378 -0.006600
vertex 0.000000 0.011378 -0.006600
vertex -0.001000 0.011378 -0.006600
endloop
endfacet
facet normal 0.000000 0.000000 1.000000
outer loop
vertex 0.000000 -0.011378 -0.006600
vertex -0.001000 0.011378 -0.006600
vertex -0.001000 -0.011378 -0.006600
endloop
endfacet
facet normal 0.000000 1.000000 0.000000
outer loop
vertex 0.000000 -0.011378 -0.006600
vertex -0.001000 -0.011378 -0.006600
vertex -0.001000 -0.011378 0.006600
endloop
endfacet
facet normal 0.000000 1.000000 0.000000
outer loop
vertex 0.000000 -0.011378 -0.006600
vertex -0.001000 -0.011378 0.006600
vertex 0.000000 -0.011378 0.006600
endloop
endfacet
endsolid Exported from Blender-2.81 (sub 16)
