solid Exported from Blender-2.81 (sub 16)
facet normal 0.000000 -1.000000 0.000001
outer loop
vertex 0.092500 -0.011378 -0.006600
vertex 0.092500 -0.011378 0.006600
vertex 0.000000 -0.011378 0.006600
endloop
endfacet
facet normal -0.000000 -1.000000 -0.000001
outer loop
vertex 0.092500 -0.011378 -0.006600
vertex 0.000000 -0.011378 0.006600
vertex 0.000000 -0.011378 -0.006600
endloop
endfacet
facet normal 1.000000 0.000000 0.000000
outer loop
vertex 0.092500 0.010878 -0.006100
vertex 0.092500 -0.010878 -0.006100
vertex 0.092500 -0.011378 -0.006600
endloop
endfacet
facet normal 1.000000 0.000000 0.000000
outer loop
vertex 0.092500 0.010878 -0.006100
vertex 0.092500 -0.011378 -0.006600
vertex 0.092500 0.011378 -0.006600
endloop
endfacet
facet normal 0.000000 0.000000 -1.000000
outer loop
vertex 0.000000 -0.011378 -0.006600
vertex 0.000000 0.011378 -0.006600
vertex 0.092500 0.011378 -0.006600
endloop
endfacet
facet normal 0.000000 0.000000 -1.000000
outer loop
vertex 0.000000 -0.011378 -0.006600
vertex 0.092500 0.011378 -0.006600
vertex 0.092500 -0.011378 -0.006600
endloop
endfacet
facet normal 1.000000 0.000010 0.000000
outer loop
vertex 0.092500 -0.010878 -0.006100
vertex 0.092500 -0.010878 0.006100
vertex 0.092500 -0.011378 0.006600
endloop
endfacet
facet normal 1.000000 -0.000035 0.000000
outer loop
vertex 0.092500 -0.010878 -0.006100
vertex 0.092500 -0.011378 0.006600
vertex 0.092500 -0.011378 -0.006600
endloop
endfacet
facet normal -0.000000 1.000000 -0.000000
outer loop
vertex 0.000000 -0.010878 0.006100
vertex 0.092500 -0.010878 0.006100
vertex 0.092500 -0.010878 -0.006100
endloop
endfacet
facet normal 0.000000 1.000000 0.000000
outer loop
vertex 0.000000 -0.010878 0.006100
vertex 0.092500 -0.010878 -0.006100
vertex 0.000000 -0.010878 -0.006100
endloop
endfacet
facet normal 1.000000 0.000026 0.000000
outer loop
vertex 0.092500 0.011378 -0.006600
vertex 0.092500 0.011378 0.006600
vertex 0.092500 0.010878 0.006100
endloop
endfacet
facet normal 1.000000 0.000000 0.000000
outer loop
vertex 0.092500 0.011378 -0.006600
vertex 0.092500 0.010878 0.006100
vertex 0.092500 0.010878 -0.006100
endloop
endfacet
facet normal -1.000000 0.000000 0.000000
outer loop
vertex 0.000000 0.010878 -0.006100
vertex 0.000000 0.010878 0.006100
vertex 0.000000 0.011378 0.006600
endloop
endfacet
facet normal -1.000000 0.000000 0.000000
outer loop
vertex 0.000000 0.010878 -0.006100
vertex 0.000000 0.011378 0.006600
vertex 0.000000 0.011378 -0.006600
endloop
endfacet
facet normal 0.000000 0.000000 1.000000
outer loop
vertex 0.092500 0.010878 -0.006100
vertex 0.000000 0.010878 -0.006100
vertex 0.000000 -0.010878 -0.006100
endloop
endfacet
facet normal 0.000000 0.000000 1.000000
outer loop
vertex 0.092500 0.010878 -0.006100
vertex 0.000000 -0.010878 -0.006100
vertex 0.092500 -0.010878 -0.006100
endloop
endfacet
facet normal -1.000000 0.000000 0.000000
outer loop
vertex 0.000000 0.010878 -0.006100
vertex 0.000000 0.011378 -0.006600
vertex 0.000000 -0.011378 -0.006600
endloop
endfacet
facet normal -1.000000 0.000000 0.000000
outer loop
vertex 0.000000 0.010878 -0.006100
vertex 0.000000 -0.011378 -0.006600
vertex 0.000000 -0.010878 -0.006100
endloop
endfacet
facet normal 0.000000 1.000000 0.000000
outer loop
vertex 0.000000 0.011378 -0.006600
vertex 0.000000 0.011378 0.006600
vertex 0.092500 0.011378 0.006600
endloop
endfacet
facet normal 0.000000 1.000000 0.000000
outer loop
vertex 0.000000 0.011378 -0.006600
vertex 0.092500 0.011378 0.006600
vertex 0.092500 0.011378 -0.006600
endloop
endfacet
facet normal 0.000000 -1.000000 0.000000
outer loop
vertex 0.000000 0.010878 0.006100
vertex 0.000000 0.010878 -0.006100
vertex 0.092500 0.010878 -0.006100
endloop
endfacet
facet normal 0.000000 -1.000000 0.000000
outer loop
vertex 0.000000 0.010878 0.006100
vertex 0.092500 0.010878 -0.006100
vertex 0.092500 0.010878 0.006100
endloop
endfacet
facet normal -1.000000 0.000000 0.000000
outer loop
vertex 0.000000 0.010878 0.006100
vertex 0.000000 -0.010878 0.006100
vertex 0.000000 -0.011378 0.006600
endloop
endfacet
facet normal -1.000000 0.000000 0.000000
outer loop
vertex 0.000000 0.010878 0.006100
vertex 0.000000 -0.011378 0.006600
vertex 0.000000 0.011378 0.006600
endloop
endfacet
facet normal 1.000000 0.000000 0.000000
outer loop
vertex 0.092500 -0.011378 0.006600
vertex 0.092500 -0.010878 0.006100
vertex 0.092500 0.010878 0.006100
endloop
endfacet
facet normal 1.000000 0.000000 0.000000
outer loop
vertex 0.092500 -0.011378 0.006600
vertex 0.092500 0.010878 0.006100
vertex 0.092500 0.011378 0.006600
endloop
endfacet
facet normal -1.000000 0.000000 0.000000
outer loop
vertex 0.000000 -0.011378 -0.006600
vertex 0.000000 -0.011378 0.006600
vertex 0.000000 -0.010878 0.006100
endloop
endfacet
facet normal -1.000000 0.000000 0.000000
outer loop
vertex 0.000000 -0.011378 -0.006600
vertex 0.000000 -0.010878 0.006100
vertex 0.000000 -0.010878 -0.006100
endloop
endfacet
facet normal 1.000000 0.000000 0.000000
outer loop
vertex 0.001572 -0.004318 0.006600
vertex 0.001572 -0.004318 0.006100
vertex 0.001572 0.004318 0.006100
endloop
endfacet
facet normal 1.000000 0.000000 0.000000
outer loop
vertex 0.001572 -0.004318 0.006600
vertex 0.001572 0.004318 0.006100
vertex 0.001572 0.004318 0.006600
endloop
endfacet
facet normal 0.000000 1.000000 0.000000
outer loop
vertex 0.010207 -0.004318 0.006600
vertex 0.010207 -0.004318 0.006100
vertex 0.001572 -0.004318 0.006100
endloop
endfacet
facet normal 0.000000 1.000000 0.000000
outer loop
vertex 0.010207 -0.004318 0.006600
vertex 0.001572 -0.004318 0.006100
vertex 0.001572 -0.004318 0.006600
endloop
endfacet
facet normal -1.000000 0.000000 0.000000
outer loop
vertex 0.010207 0.003724 0.006600
vertex 0.010207 0.004318 0.006600
vertex 0.010207 0.004318 0.006100
endloop
endfacet
facet normal -1.000000 -0.000003 0.000000
outer loop
vertex 0.010207 -0.003724 0.006100
vertex 0.010207 -0.004318 0.006100
vertex 0.010207 -0.004318 0.006600
endloop
endfacet
facet normal -1.000000 0.000000 -0.000002
outer loop
vertex 0.010207 0.003724 0.006600
vertex 0.010207 0.004318 0.006100
vertex 0.010207 -0.003724 0.006100
endloop
endfacet
facet normal -1.000000 -0.000000 0.000002
outer loop
vertex 0.010207 -0.003724 0.006100
vertex 0.010207 -0.004318 0.006600
vertex 0.010207 0.003724 0.006600
endloop
endfacet
facet normal 0.000000 -1.000000 0.000000
outer loop
vertex 0.001572 0.004318 0.006600
vertex 0.001572 0.004318 0.006100
vertex 0.010207 0.004318 0.006100
endloop
endfacet
facet normal 0.000000 -1.000000 0.000000
outer loop
vertex 0.001572 0.004318 0.006600
vertex 0.010207 0.004318 0.006100
vertex 0.010207 0.004318 0.006600
endloop
endfacet
facet normal -0.000000 -0.000000 -1.000000
outer loop
vertex 0.092500 -0.010878 0.006100
vertex 0.000000 -0.010878 0.006100
vertex 0.001572 -0.004318 0.006100
endloop
endfacet
facet normal 0.000000 -0.000000 -1.000000
outer loop
vertex 0.092500 -0.010878 0.006100
vertex 0.001572 -0.004318 0.006100
vertex 0.010207 -0.004318 0.006100
endloop
endfacet
facet normal -0.000001 0.000000 -1.000000
outer loop
vertex 0.001572 -0.004318 0.006100
vertex 0.000000 -0.010878 0.006100
vertex 0.000000 0.010878 0.006100
endloop
endfacet
facet normal -0.000001 0.000000 -1.000000
outer loop
vertex 0.001572 -0.004318 0.006100
vertex 0.000000 0.010878 0.006100
vertex 0.001572 0.004318 0.006100
endloop
endfacet
facet normal 0.000000 0.000000 -1.000000
outer loop
vertex 0.000000 0.010878 0.006100
vertex 0.092500 0.010878 0.006100
vertex 0.010207 0.004318 0.006100
endloop
endfacet
facet normal 0.000000 0.000000 -1.000000
outer loop
vertex 0.000000 0.010878 0.006100
vertex 0.010207 0.004318 0.006100
vertex 0.001572 0.004318 0.006100
endloop
endfacet
facet normal 0.000000 0.000000 -1.000000
outer loop
vertex 0.092500 0.010878 0.006100
vertex 0.092500 -0.010878 0.006100
vertex 0.010207 -0.004318 0.006100
endloop
endfacet
facet normal 0.000000 0.000000 -1.000000
outer loop
vertex 0.092500 0.010878 0.006100
vertex 0.010207 -0.004318 0.006100
vertex 0.010207 0.004318 0.006100
endloop
endfacet
facet normal 0.000000 -0.000000 1.000000
outer loop
vertex 0.092500 -0.011378 0.006600
vertex 0.010207 -0.004318 0.006600
vertex 0.001572 -0.004318 0.006600
endloop
endfacet
facet normal 0.000000 -0.000000 1.000000
outer loop
vertex 0.092500 -0.011378 0.006600
vertex 0.001572 -0.004318 0.006600
vertex 0.000000 -0.011378 0.006600
endloop
endfacet
facet normal 0.000001 0.000000 1.000000
outer loop
vertex 0.001572 -0.004318 0.006600
vertex 0.001572 0.004318 0.006600
vertex 0.000000 0.011378 0.006600
endloop
endfacet
facet normal -0.000001 0.000000 1.000000
outer loop
vertex 0.001572 -0.004318 0.006600
vertex 0.000000 0.011378 0.006600
vertex 0.000000 -0.011378 0.006600
endloop
endfacet
facet normal 0.000000 0.000000 1.000000
outer loop
vertex 0.000000 0.011378 0.006600
vertex 0.001572 0.004318 0.006600
vertex 0.010207 0.004318 0.006600
endloop
endfacet
facet normal 0.000000 -0.000000 1.000000
outer loop
vertex 0.000000 0.011378 0.006600
vertex 0.010207 0.004318 0.006600
vertex 0.092500 0.011378 0.006600
endloop
endfacet
facet normal -0.000000 0.000000 1.000000
outer loop
vertex 0.092500 0.011378 0.006600
vertex 0.010207 0.004318 0.006600
vertex 0.010207 -0.004318 0.006600
endloop
endfacet
facet normal 0.000000 0.000000 1.000000
outer loop
vertex 0.092500 0.011378 0.006600
vertex 0.010207 -0.004318 0.006600
vertex 0.092500 -0.011378 0.006600
endloop
endfacet
endsolid Exported from Blender-2.81 (sub 16)
