solid Exported from Blender-2.81 (sub 16)
facet normal 0.000000 0.000000 1.000000
outer loop
vertex 0.001572 -0.004318 0.015406
vertex 0.002184 -0.003706 0.015406
vertex 0.002184 0.003706 0.015406
endloop
endfacet
facet normal 0.000000 0.000000 1.000000
outer loop
vertex 0.001572 -0.004318 0.015406
vertex 0.002184 0.003706 0.015406
vertex 0.001572 0.004318 0.015406
endloop
endfacet
facet normal 0.000000 0.000000 1.000000
outer loop
vertex 0.001572 0.004318 0.015406
vertex 0.002184 0.003706 0.015406
vertex 0.009595 0.003706 0.015406
endloop
endfacet
facet normal 0.000000 0.000000 1.000000
outer loop
vertex 0.001572 0.004318 0.015406
vertex 0.009595 0.003706 0.015406
vertex 0.010207 0.004318 0.015406
endloop
endfacet
facet normal 0.000000 0.000000 1.000000
outer loop
vertex 0.010207 0.004318 0.015406
vertex 0.009595 0.003706 0.015406
vertex 0.009595 -0.003706 0.015406
endloop
endfacet
facet normal -0.000000 0.000000 1.000000
outer loop
vertex 0.010207 0.004318 0.015406
vertex 0.009595 -0.003706 0.015406
vertex 0.010207 -0.004318 0.015406
endloop
endfacet
facet normal 0.000000 0.000000 1.000000
outer loop
vertex 0.010207 -0.004318 0.015406
vertex 0.009595 -0.003706 0.015406
vertex 0.002184 -0.003706 0.015406
endloop
endfacet
facet normal 0.000000 0.000000 1.000000
outer loop
vertex 0.010207 -0.004318 0.015406
vertex 0.002184 -0.003706 0.015406
vertex 0.001572 -0.004318 0.015406
endloop
endfacet
facet normal -0.000002 0.000000 -1.000000
outer loop
vertex 0.001572 -0.004318 0.006100
vertex 0.001572 0.004318 0.006100
vertex 0.002184 0.003706 0.006100
endloop
endfacet
facet normal 0.000003 0.000000 -1.000000
outer loop
vertex 0.001572 -0.004318 0.006100
vertex 0.002184 0.003706 0.006100
vertex 0.002184 -0.003706 0.006100
endloop
endfacet
facet normal 0.000000 0.000000 -1.000000
outer loop
vertex 0.001572 0.004318 0.006100
vertex 0.010207 0.004318 0.006100
vertex 0.009595 0.003706 0.006100
endloop
endfacet
facet normal 0.000000 0.000000 -1.000000
outer loop
vertex 0.001572 0.004318 0.006100
vertex 0.009595 0.003706 0.006100
vertex 0.002184 0.003706 0.006100
endloop
endfacet
facet normal 0.000002 0.000000 -1.000000
outer loop
vertex 0.010207 0.004318 0.006100
vertex 0.010207 -0.004318 0.006100
vertex 0.009595 -0.003706 0.006100
endloop
endfacet
facet normal -0.000003 0.000000 -1.000000
outer loop
vertex 0.010207 0.004318 0.006100
vertex 0.009595 -0.003706 0.006100
vertex 0.009595 0.003706 0.006100
endloop
endfacet
facet normal 0.000000 0.000000 -1.000000
outer loop
vertex 0.010207 -0.004318 0.006100
vertex 0.001572 -0.004318 0.006100
vertex 0.002184 -0.003706 0.006100
endloop
endfacet
facet normal 0.000000 0.000000 -1.000000
outer loop
vertex 0.010207 -0.004318 0.006100
vertex 0.002184 -0.003706 0.006100
vertex 0.009595 -0.003706 0.006100
endloop
endfacet
facet normal 0.000000 1.000000 0.000000
outer loop
vertex 0.001572 0.004318 0.015406
vertex 0.010207 0.004318 0.015406
vertex 0.010207 0.004318 0.006100
endloop
endfacet
facet normal 0.000000 1.000000 0.000000
outer loop
vertex 0.001572 0.004318 0.015406
vertex 0.010207 0.004318 0.006100
vertex 0.001572 0.004318 0.006100
endloop
endfacet
facet normal 0.000000 1.000000 0.000000
outer loop
vertex 0.002184 -0.003706 0.015406
vertex 0.009595 -0.003706 0.015406
vertex 0.009595 -0.003706 0.006100
endloop
endfacet
facet normal 0.000000 1.000000 0.000000
outer loop
vertex 0.002184 -0.003706 0.015406
vertex 0.009595 -0.003706 0.006100
vertex 0.002184 -0.003706 0.006100
endloop
endfacet
facet normal 0.000000 -1.000000 0.000000
outer loop
vertex 0.009595 0.003706 0.015406
vertex 0.002184 0.003706 0.015406
vertex 0.002184 0.003706 0.006100
endloop
endfacet
facet normal 0.000000 -1.000000 0.000000
outer loop
vertex 0.009595 0.003706 0.015406
vertex 0.002184 0.003706 0.006100
vertex 0.009595 0.003706 0.006100
endloop
endfacet
facet normal 1.000000 0.000000 0.000000
outer loop
vertex 0.010207 0.004318 0.015406
vertex 0.010207 -0.004318 0.015406
vertex 0.010207 -0.004318 0.006100
endloop
endfacet
facet normal 1.000000 0.000000 0.000000
outer loop
vertex 0.010207 0.004318 0.015406
vertex 0.010207 -0.004318 0.006100
vertex 0.010207 0.004318 0.006100
endloop
endfacet
facet normal -1.000000 0.000000 0.000000
outer loop
vertex 0.001572 -0.004318 0.015406
vertex 0.001572 0.004318 0.015406
vertex 0.001572 0.004318 0.006100
endloop
endfacet
facet normal -1.000000 0.000000 0.000000
outer loop
vertex 0.001572 -0.004318 0.015406
vertex 0.001572 0.004318 0.006100
vertex 0.001572 -0.004318 0.006100
endloop
endfacet
facet normal -1.000000 0.000000 0.000000
outer loop
vertex 0.009595 -0.003706 0.015406
vertex 0.009595 0.003706 0.015406
vertex 0.009595 0.003706 0.006100
endloop
endfacet
facet normal -1.000000 0.000000 0.000000
outer loop
vertex 0.009595 -0.003706 0.015406
vertex 0.009595 0.003706 0.006100
vertex 0.009595 -0.003706 0.006100
endloop
endfacet
facet normal 1.000000 0.000000 0.000000
outer loop
vertex 0.002184 0.003706 0.015406
vertex 0.002184 -0.003706 0.015406
vertex 0.002184 -0.003706 0.006100
endloop
endfacet
facet normal 1.000000 0.000000 0.000000
outer loop
vertex 0.002184 0.003706 0.015406
vertex 0.002184 -0.003706 0.006100
vertex 0.002184 0.003706 0.006100
endloop
endfacet
facet normal 0.000000 -1.000000 0.000000
outer loop
vertex 0.010207 -0.004318 0.015406
vertex 0.001572 -0.004318 0.015406
vertex 0.001572 -0.004318 0.006100
endloop
endfacet
facet normal 0.000000 -1.000000 0.000000
outer loop
vertex 0.010207 -0.004318 0.015406
vertex 0.001572 -0.004318 0.006100
vertex 0.010207 -0.004318 0.006100
endloop
endfacet
endsolid Exported from Blender-2.81 (sub 16)
