solid Exported from Blender-2.81 (sub 16)
facet normal 0.000000 0.000000 -1.000000
outer loop
vertex 0.096901 -0.003099 -0.030000
vertex 0.096711 -0.003289 -0.030000
vertex 0.096711 0.003289 -0.030000
endloop
endfacet
facet normal -0.000005 0.000000 -1.000000
outer loop
vertex 0.096901 -0.003099 -0.030000
vertex 0.096711 0.003289 -0.030000
vertex 0.096901 0.003099 -0.030000
endloop
endfacet
facet normal 0.000000 0.000000 -1.000000
outer loop
vertex 0.103099 -0.003099 -0.030000
vertex 0.103289 -0.003289 -0.030000
vertex 0.096711 -0.003289 -0.030000
endloop
endfacet
facet normal 0.000000 0.000000 -1.000000
outer loop
vertex 0.103099 -0.003099 -0.030000
vertex 0.096711 -0.003289 -0.030000
vertex 0.096901 -0.003099 -0.030000
endloop
endfacet
facet normal 0.000000 0.000000 -1.000000
outer loop
vertex 0.096901 0.003099 -0.030000
vertex 0.096711 0.003289 -0.030000
vertex 0.103289 0.003289 -0.030000
endloop
endfacet
facet normal 0.000000 0.000000 -1.000000
outer loop
vertex 0.096901 0.003099 -0.030000
vertex 0.103289 0.003289 -0.030000
vertex 0.103099 0.003099 -0.030000
endloop
endfacet
facet normal 0.000000 0.000000 -1.000000
outer loop
vertex 0.103099 0.003099 -0.030000
vertex 0.103289 0.003289 -0.030000
vertex 0.103289 -0.003289 -0.030000
endloop
endfacet
facet normal 0.000005 0.000000 -1.000000
outer loop
vertex 0.103099 0.003099 -0.030000
vertex 0.103289 -0.003289 -0.030000
vertex 0.103099 -0.003099 -0.030000
endloop
endfacet
facet normal 0.756838 0.000000 0.653602
outer loop
vertex 0.095240 -0.019647 -0.018696
vertex 0.095240 0.019647 -0.018696
vertex 0.086079 0.019647 -0.008089
endloop
endfacet
facet normal 0.756838 0.000000 0.653602
outer loop
vertex 0.095240 -0.019647 -0.018696
vertex 0.086079 0.019647 -0.008089
vertex 0.086079 -0.019647 -0.008089
endloop
endfacet
facet normal -1.000000 0.000000 0.000000
outer loop
vertex 0.120957 0.019647 -0.018696
vertex 0.120957 -0.019647 -0.018696
vertex 0.120957 -0.019647 0.007066
endloop
endfacet
facet normal -1.000000 0.000000 0.000000
outer loop
vertex 0.120957 0.019647 -0.018696
vertex 0.120957 -0.019647 0.007066
vertex 0.120957 0.019647 0.007066
endloop
endfacet
facet normal -0.756838 0.000000 -0.653602
outer loop
vertex 0.094453 0.020850 -0.018696
vertex 0.094453 -0.020850 -0.018696
vertex 0.085292 -0.020850 -0.008089
endloop
endfacet
facet normal -0.756838 0.000000 -0.653602
outer loop
vertex 0.094453 0.020850 -0.018696
vertex 0.085292 -0.020850 -0.008089
vertex 0.085292 0.020850 -0.008089
endloop
endfacet
facet normal 1.000000 0.000000 0.000000
outer loop
vertex 0.121744 -0.020850 -0.018696
vertex 0.121744 0.020850 -0.018696
vertex 0.121744 0.020850 0.007066
endloop
endfacet
facet normal 1.000000 0.000000 0.000000
outer loop
vertex 0.121744 -0.020850 -0.018696
vertex 0.121744 0.020850 0.007066
vertex 0.121744 -0.020850 0.007066
endloop
endfacet
facet normal -0.534867 0.000000 0.844937
outer loop
vertex 0.103099 0.003099 -0.030000
vertex 0.103099 -0.003099 -0.030000
vertex 0.120957 -0.019647 -0.018696
endloop
endfacet
facet normal -0.534866 0.000000 0.844937
outer loop
vertex 0.103099 0.003099 -0.030000
vertex 0.120957 -0.019647 -0.018696
vertex 0.120957 0.019647 -0.018696
endloop
endfacet
facet normal 0.989376 0.000000 0.145378
outer loop
vertex 0.096901 -0.003099 -0.030000
vertex 0.096901 0.003099 -0.030000
vertex 0.095240 0.019647 -0.018696
endloop
endfacet
facet normal 0.989376 0.000000 0.145379
outer loop
vertex 0.096901 -0.003099 -0.030000
vertex 0.095240 0.019647 -0.018696
vertex 0.095240 -0.019647 -0.018696
endloop
endfacet
facet normal 0.000000 -0.541273 -0.840847
outer loop
vertex 0.096711 -0.003289 -0.030000
vertex 0.103289 -0.003289 -0.030000
vertex 0.121744 -0.020850 -0.018696
endloop
endfacet
facet normal 0.000000 -0.541273 -0.840847
outer loop
vertex 0.096711 -0.003289 -0.030000
vertex 0.121744 -0.020850 -0.018696
vertex 0.094453 -0.020850 -0.018696
endloop
endfacet
facet normal 0.000000 0.541273 -0.840847
outer loop
vertex 0.103289 0.003289 -0.030000
vertex 0.096711 0.003289 -0.030000
vertex 0.094453 0.020850 -0.018696
endloop
endfacet
facet normal 0.000000 0.541273 -0.840847
outer loop
vertex 0.103289 0.003289 -0.030000
vertex 0.094453 0.020850 -0.018696
vertex 0.121744 0.020850 -0.018696
endloop
endfacet
facet normal 0.000000 0.564067 0.825729
outer loop
vertex 0.103099 -0.003099 -0.030000
vertex 0.096901 -0.003099 -0.030000
vertex 0.095240 -0.019647 -0.018696
endloop
endfacet
facet normal 0.000000 0.564066 0.825729
outer loop
vertex 0.103099 -0.003099 -0.030000
vertex 0.095240 -0.019647 -0.018696
vertex 0.120957 -0.019647 -0.018696
endloop
endfacet
facet normal 0.000000 -0.564066 0.825729
outer loop
vertex 0.096901 0.003099 -0.030000
vertex 0.103099 0.003099 -0.030000
vertex 0.120957 0.019647 -0.018696
endloop
endfacet
facet normal 0.000000 -0.564066 0.825729
outer loop
vertex 0.096901 0.003099 -0.030000
vertex 0.120957 0.019647 -0.018696
vertex 0.095240 0.019647 -0.018696
endloop
endfacet
facet normal 0.522337 0.000000 -0.852739
outer loop
vertex 0.103289 -0.003289 -0.030000
vertex 0.103289 0.003289 -0.030000
vertex 0.121744 0.020850 -0.018696
endloop
endfacet
facet normal 0.522337 0.000000 -0.852739
outer loop
vertex 0.103289 -0.003289 -0.030000
vertex 0.121744 0.020850 -0.018696
vertex 0.121744 -0.020850 -0.018696
endloop
endfacet
facet normal -0.980625 0.000000 -0.195897
outer loop
vertex 0.096711 0.003289 -0.030000
vertex 0.096711 -0.003289 -0.030000
vertex 0.094453 -0.020850 -0.018696
endloop
endfacet
facet normal -0.980625 0.000000 -0.195897
outer loop
vertex 0.096711 0.003289 -0.030000
vertex 0.094453 -0.020850 -0.018696
vertex 0.094453 0.020850 -0.018696
endloop
endfacet
facet normal -0.000000 0.000000 1.000000
outer loop
vertex 0.086079 -0.019647 -0.008089
vertex 0.086079 0.019647 -0.008089
vertex 0.085292 0.020850 -0.008089
endloop
endfacet
facet normal 0.000000 0.000000 1.000000
outer loop
vertex 0.086079 -0.019647 -0.008089
vertex 0.085292 0.020850 -0.008089
vertex 0.085292 -0.020850 -0.008089
endloop
endfacet
facet normal 0.000000 -1.000000 0.000000
outer loop
vertex 0.085292 -0.020850 -0.008089
vertex 0.121744 -0.020850 0.007066
vertex 0.117235 -0.020850 0.019493
endloop
endfacet
facet normal 0.000000 -1.000000 -0.000000
outer loop
vertex 0.085292 -0.020850 -0.008089
vertex 0.117235 -0.020850 0.019493
vertex 0.089944 -0.020850 0.004339
endloop
endfacet
facet normal -0.798492 0.522583 0.298861
outer loop
vertex 0.086079 -0.019647 -0.008089
vertex 0.085292 -0.020850 -0.008089
vertex 0.089944 -0.020850 0.004339
endloop
endfacet
facet normal -0.798492 0.522582 0.298861
outer loop
vertex 0.086079 -0.019647 -0.008089
vertex 0.089944 -0.020850 0.004339
vertex 0.090731 -0.019647 0.004339
endloop
endfacet
facet normal -0.940043 0.000000 -0.341056
outer loop
vertex 0.120957 0.019647 0.007066
vertex 0.120957 -0.019647 0.007066
vertex 0.116448 -0.019647 0.019493
endloop
endfacet
facet normal -0.940043 0.000000 -0.341056
outer loop
vertex 0.120957 0.019647 0.007066
vertex 0.116448 -0.019647 0.019493
vertex 0.116448 0.019647 0.019493
endloop
endfacet
facet normal 0.000000 -1.000000 0.000000
outer loop
vertex 0.094453 -0.020850 -0.018696
vertex 0.121744 -0.020850 -0.018696
vertex 0.121744 -0.020850 0.007066
endloop
endfacet
facet normal 0.000000 -1.000000 0.000000
outer loop
vertex 0.094453 -0.020850 -0.018696
vertex 0.121744 -0.020850 0.007066
vertex 0.085292 -0.020850 -0.008089
endloop
endfacet
facet normal 0.000000 1.000000 0.000000
outer loop
vertex 0.121744 0.020850 -0.018696
vertex 0.094453 0.020850 -0.018696
vertex 0.085292 0.020850 -0.008089
endloop
endfacet
facet normal 0.000000 1.000000 0.000000
outer loop
vertex 0.121744 0.020850 -0.018696
vertex 0.085292 0.020850 -0.008089
vertex 0.121744 0.020850 0.007066
endloop
endfacet
facet normal 0.000000 1.000000 0.000000
outer loop
vertex 0.120957 -0.019647 -0.018696
vertex 0.095240 -0.019647 -0.018696
vertex 0.086079 -0.019647 -0.008089
endloop
endfacet
facet normal 0.000000 1.000000 0.000000
outer loop
vertex 0.120957 -0.019647 -0.018696
vertex 0.086079 -0.019647 -0.008089
vertex 0.120957 -0.019647 0.007066
endloop
endfacet
facet normal 0.000000 -1.000000 0.000000
outer loop
vertex 0.095240 0.019647 -0.018696
vertex 0.120957 0.019647 -0.018696
vertex 0.120957 0.019647 0.007066
endloop
endfacet
facet normal 0.000000 -1.000000 0.000000
outer loop
vertex 0.095240 0.019647 -0.018696
vertex 0.120957 0.019647 0.007066
vertex 0.086079 0.019647 -0.008089
endloop
endfacet
facet normal -0.481784 0.315301 0.817600
outer loop
vertex 0.116448 -0.019647 0.019493
vertex 0.090731 -0.019647 0.004339
vertex 0.089944 -0.020850 0.004339
endloop
endfacet
facet normal -0.462674 -0.302795 0.833216
outer loop
vertex 0.116448 -0.019647 0.019493
vertex 0.089944 -0.020850 0.004339
vertex 0.117235 -0.020850 0.019493
endloop
endfacet
facet normal -0.481783 0.315307 0.817598
outer loop
vertex 0.090731 0.019647 0.004339
vertex 0.116448 0.019647 0.019493
vertex 0.117235 0.020850 0.019493
endloop
endfacet
facet normal -0.462673 -0.302800 0.833214
outer loop
vertex 0.090731 0.019647 0.004339
vertex 0.117235 0.020850 0.019493
vertex 0.089944 0.020850 0.004339
endloop
endfacet
facet normal -0.000002 0.000000 1.000000
outer loop
vertex 0.116448 0.019647 0.019493
vertex 0.116448 -0.019647 0.019493
vertex 0.117235 -0.020850 0.019493
endloop
endfacet
facet normal 0.000000 0.000000 1.000000
outer loop
vertex 0.116448 0.019647 0.019493
vertex 0.117235 -0.020850 0.019493
vertex 0.117235 0.020850 0.019493
endloop
endfacet
facet normal 0.000000 1.000000 0.000000
outer loop
vertex 0.121744 0.020850 0.007066
vertex 0.085292 0.020850 -0.008089
vertex 0.089944 0.020850 0.004339
endloop
endfacet
facet normal 0.000000 1.000000 -0.000000
outer loop
vertex 0.121744 0.020850 0.007066
vertex 0.089944 0.020850 0.004339
vertex 0.117235 0.020850 0.019493
endloop
endfacet
facet normal 0.000000 1.000000 -0.000000
outer loop
vertex 0.120957 -0.019647 0.007066
vertex 0.086079 -0.019647 -0.008089
vertex 0.090731 -0.019647 0.004339
endloop
endfacet
facet normal 0.000000 1.000000 0.000000
outer loop
vertex 0.120957 -0.019647 0.007066
vertex 0.090731 -0.019647 0.004339
vertex 0.116448 -0.019647 0.019493
endloop
endfacet
facet normal 0.000000 -1.000000 0.000000
outer loop
vertex 0.086079 0.019647 -0.008089
vertex 0.120957 0.019647 0.007066
vertex 0.116448 0.019647 0.019493
endloop
endfacet
facet normal 0.000000 -1.000000 -0.000000
outer loop
vertex 0.086079 0.019647 -0.008089
vertex 0.116448 0.019647 0.019493
vertex 0.090731 0.019647 0.004339
endloop
endfacet
facet normal -0.798492 -0.522582 0.298861
outer loop
vertex 0.085292 0.020850 -0.008089
vertex 0.086079 0.019647 -0.008089
vertex 0.090731 0.019647 0.004339
endloop
endfacet
facet normal -0.798492 -0.522582 0.298861
outer loop
vertex 0.085292 0.020850 -0.008089
vertex 0.090731 0.019647 0.004339
vertex 0.089944 0.020850 0.004339
endloop
endfacet
facet normal 0.940043 0.000000 0.341056
outer loop
vertex 0.121744 -0.020850 0.007066
vertex 0.121744 0.020850 0.007066
vertex 0.117235 0.020850 0.019493
endloop
endfacet
facet normal 0.940043 0.000000 0.341056
outer loop
vertex 0.121744 -0.020850 0.007066
vertex 0.117235 0.020850 0.019493
vertex 0.117235 -0.020850 0.019493
endloop
endfacet
endsolid Exported from Blender-2.81 (sub 16)
