solid Exported from Blender-2.81 (sub 16)
facet normal 0.649188 -0.379508 -0.659188
outer loop
vertex 0.011946 -0.006056 0.067344
vertex 0.008958 -0.003069 0.062682
vertex 0.009498 -0.002411 0.062835
endloop
endfacet
facet normal 0.649181 -0.379512 -0.659193
outer loop
vertex 0.011946 -0.006056 0.067344
vertex 0.009498 -0.002411 0.062835
vertex 0.013011 -0.004758 0.067646
endloop
endfacet
facet normal 0.762861 -0.111813 -0.636821
outer loop
vertex 0.014290 -0.001671 0.068249
vertex 0.013802 -0.003278 0.067948
vertex 0.009899 -0.001661 0.062988
endloop
endfacet
facet normal 0.762861 -0.111815 -0.636820
outer loop
vertex 0.014290 -0.001671 0.068249
vertex 0.009899 -0.001661 0.062988
vertex 0.010146 -0.000847 0.063141
endloop
endfacet
facet normal 0.718784 -0.252173 -0.647887
outer loop
vertex 0.013011 -0.004758 0.067646
vertex 0.009498 -0.002411 0.062835
vertex 0.009899 -0.001661 0.062988
endloop
endfacet
facet normal 0.718785 -0.252171 -0.647887
outer loop
vertex 0.013011 -0.004758 0.067646
vertex 0.009899 -0.001661 0.062988
vertex 0.013802 -0.003278 0.067948
endloop
endfacet
facet normal 0.778981 0.036326 -0.625995
outer loop
vertex 0.014454 0.000000 0.068551
vertex 0.014290 -0.001671 0.068249
vertex 0.010146 -0.000847 0.063141
endloop
endfacet
facet normal 0.778982 0.036330 -0.625993
outer loop
vertex 0.014454 0.000000 0.068551
vertex 0.010146 -0.000847 0.063141
vertex 0.010230 0.000000 0.063294
endloop
endfacet
facet normal 0.765810 0.186563 -0.615410
outer loop
vertex 0.014290 0.001671 0.068853
vertex 0.014454 0.000000 0.068551
vertex 0.010230 0.000000 0.063294
endloop
endfacet
facet normal 0.765809 0.186560 -0.615412
outer loop
vertex 0.014290 0.001671 0.068853
vertex 0.010230 0.000000 0.063294
vertex 0.010146 0.000847 0.063447
endloop
endfacet
facet normal 0.723183 0.333012 -0.605069
outer loop
vertex 0.013802 0.003278 0.069155
vertex 0.014290 0.001671 0.068853
vertex 0.010146 0.000847 0.063447
endloop
endfacet
facet normal 0.723187 0.333010 -0.605066
outer loop
vertex 0.013802 0.003278 0.069155
vertex 0.010146 0.000847 0.063447
vertex 0.009899 0.001661 0.063600
endloop
endfacet
facet normal 0.652138 0.469820 -0.594966
outer loop
vertex 0.013011 0.004758 0.069456
vertex 0.013802 0.003278 0.069155
vertex 0.009899 0.001661 0.063600
endloop
endfacet
facet normal 0.652146 0.469816 -0.594961
outer loop
vertex 0.013011 0.004758 0.069456
vertex 0.009899 0.001661 0.063600
vertex 0.009498 0.002411 0.063753
endloop
endfacet
facet normal -0.178444 0.823023 -0.539250
outer loop
vertex 0.004219 0.008400 0.071267
vertex 0.005890 0.008565 0.070965
vertex 0.005890 0.004340 0.064517
endloop
endfacet
facet normal -0.178441 0.823024 -0.539250
outer loop
vertex 0.004219 0.008400 0.071267
vertex 0.005890 0.004340 0.064517
vertex 0.005043 0.004257 0.064670
endloop
endfacet
facet normal 0.554878 0.591410 -0.585102
outer loop
vertex 0.011946 0.006056 0.069758
vertex 0.013011 0.004758 0.069456
vertex 0.009498 0.002411 0.063753
endloop
endfacet
facet normal 0.554882 0.591409 -0.585100
outer loop
vertex 0.011946 0.006056 0.069758
vertex 0.009498 0.002411 0.063753
vertex 0.008958 0.003069 0.063906
endloop
endfacet
facet normal -0.335741 0.778195 -0.530745
outer loop
vertex 0.002612 0.007913 0.071569
vertex 0.004219 0.008400 0.071267
vertex 0.005043 0.004257 0.064670
endloop
endfacet
facet normal -0.335741 0.778194 -0.530746
outer loop
vertex 0.002612 0.007913 0.071569
vertex 0.005043 0.004257 0.064670
vertex 0.004229 0.004010 0.064823
endloop
endfacet
facet normal 0.434706 0.692720 -0.575474
outer loop
vertex 0.010648 0.007121 0.070060
vertex 0.011946 0.006056 0.069758
vertex 0.008958 0.003069 0.063906
endloop
endfacet
facet normal 0.434709 0.692718 -0.575474
outer loop
vertex 0.010648 0.007121 0.070060
vertex 0.008958 0.003069 0.063906
vertex 0.008301 0.003609 0.064059
endloop
endfacet
facet normal -0.482309 0.703151 -0.522452
outer loop
vertex 0.001131 0.007121 0.071870
vertex 0.002612 0.007913 0.071569
vertex 0.004229 0.004010 0.064823
endloop
endfacet
facet normal -0.482302 0.703155 -0.522454
outer loop
vertex 0.001131 0.007121 0.071870
vertex 0.004229 0.004010 0.064823
vertex 0.003478 0.003609 0.064976
endloop
endfacet
facet normal 0.295902 0.769414 -0.566078
outer loop
vertex 0.009167 0.007913 0.070362
vertex 0.010648 0.007121 0.070060
vertex 0.008301 0.003609 0.064059
endloop
endfacet
facet normal 0.295903 0.769413 -0.566078
outer loop
vertex 0.009167 0.007913 0.070362
vertex 0.008301 0.003609 0.064059
vertex 0.007550 0.004010 0.064211
endloop
endfacet
facet normal -0.612327 0.600404 -0.514364
outer loop
vertex -0.000166 0.006056 0.072172
vertex 0.001131 0.007121 0.071870
vertex 0.003478 0.003609 0.064976
endloop
endfacet
facet normal -0.612319 0.600408 -0.514369
outer loop
vertex -0.000166 0.006056 0.072172
vertex 0.003478 0.003609 0.064976
vertex 0.002821 0.003069 0.065129
endloop
endfacet
facet normal 0.143569 0.818069 -0.556912
outer loop
vertex 0.007561 0.008400 0.070663
vertex 0.009167 0.007913 0.070362
vertex 0.007550 0.004010 0.064211
endloop
endfacet
facet normal 0.143569 0.818070 -0.556911
outer loop
vertex 0.007561 0.008400 0.070663
vertex 0.007550 0.004010 0.064211
vertex 0.006736 0.004257 0.064364
endloop
endfacet
facet normal -0.720552 0.473587 -0.506479
outer loop
vertex -0.001232 0.004758 0.072474
vertex -0.000166 0.006056 0.072172
vertex 0.002821 0.003069 0.065129
endloop
endfacet
facet normal -0.720550 0.473588 -0.506480
outer loop
vertex -0.001232 0.004758 0.072474
vertex 0.002821 0.003069 0.065129
vertex 0.002281 0.002411 0.065282
endloop
endfacet
facet normal -0.016592 0.836333 -0.547971
outer loop
vertex 0.005890 0.008565 0.070965
vertex 0.007561 0.008400 0.070663
vertex 0.006736 0.004257 0.064364
endloop
endfacet
facet normal -0.016577 0.836333 -0.547971
outer loop
vertex 0.005890 0.008565 0.070965
vertex 0.006736 0.004257 0.064364
vertex 0.005890 0.004340 0.064517
endloop
endfacet
facet normal -0.802539 0.327322 -0.498791
outer loop
vertex -0.002023 0.003278 0.072776
vertex -0.001232 0.004758 0.072474
vertex 0.002281 0.002411 0.065282
endloop
endfacet
facet normal -0.802539 0.327322 -0.498790
outer loop
vertex -0.002023 0.003278 0.072776
vertex 0.002281 0.002411 0.065282
vertex 0.001880 0.001661 0.065435
endloop
endfacet
facet normal -0.854827 0.167042 -0.491293
outer loop
vertex -0.002510 0.001671 0.073077
vertex -0.002023 0.003278 0.072776
vertex 0.001880 0.001661 0.065435
endloop
endfacet
facet normal -0.854826 0.167042 -0.491293
outer loop
vertex -0.002510 0.001671 0.073077
vertex 0.001880 0.001661 0.065435
vertex 0.001633 0.000847 0.065588
endloop
endfacet
facet normal -0.467401 -0.409486 -0.783490
outer loop
vertex -0.001232 -0.004758 0.064629
vertex -0.002023 -0.003278 0.064327
vertex 0.001880 -0.001661 0.061153
endloop
endfacet
facet normal -0.467400 -0.409488 -0.783490
outer loop
vertex -0.001232 -0.004758 0.064629
vertex 0.001880 -0.001661 0.061153
vertex 0.002281 -0.002411 0.061306
endloop
endfacet
facet normal -0.520371 -0.307472 -0.796665
outer loop
vertex -0.002510 -0.001671 0.064025
vertex 0.001633 -0.000847 0.061001
vertex 0.001880 -0.001661 0.061153
endloop
endfacet
facet normal -0.520367 -0.307471 -0.796668
outer loop
vertex -0.002510 -0.001671 0.064025
vertex 0.001880 -0.001661 0.061153
vertex -0.002023 -0.003278 0.064327
endloop
endfacet
facet normal -0.393276 -0.501856 -0.770372
outer loop
vertex -0.000166 -0.006056 0.064930
vertex -0.001232 -0.004758 0.064629
vertex 0.002281 -0.002411 0.061306
endloop
endfacet
facet normal -0.393271 -0.501858 -0.770374
outer loop
vertex -0.000166 -0.006056 0.064930
vertex 0.002281 -0.002411 0.061306
vertex 0.002821 -0.003069 0.061459
endloop
endfacet
facet normal -0.299952 -0.580044 -0.757349
outer loop
vertex 0.001131 -0.007121 0.065232
vertex -0.000166 -0.006056 0.064930
vertex 0.002821 -0.003069 0.061459
endloop
endfacet
facet normal -0.299949 -0.580044 -0.757350
outer loop
vertex 0.001131 -0.007121 0.065232
vertex 0.002821 -0.003069 0.061459
vertex 0.003478 -0.003609 0.061612
endloop
endfacet
facet normal -0.190370 -0.639969 -0.744445
outer loop
vertex 0.002612 -0.007913 0.065534
vertex 0.001131 -0.007121 0.065232
vertex 0.003478 -0.003609 0.061612
endloop
endfacet
facet normal -0.190356 -0.639971 -0.744447
outer loop
vertex 0.002612 -0.007913 0.065534
vertex 0.003478 -0.003609 0.061612
vertex 0.004229 -0.004010 0.061765
endloop
endfacet
facet normal -0.068323 -0.678207 -0.731688
outer loop
vertex 0.004219 -0.008400 0.065836
vertex 0.002612 -0.007913 0.065534
vertex 0.004229 -0.004010 0.061765
endloop
endfacet
facet normal -0.068320 -0.678207 -0.731689
outer loop
vertex 0.004219 -0.008400 0.065836
vertex 0.004229 -0.004010 0.061765
vertex 0.005043 -0.004257 0.061918
endloop
endfacet
facet normal 0.061692 -0.692164 -0.719099
outer loop
vertex 0.005890 -0.008565 0.066137
vertex 0.004219 -0.008400 0.065836
vertex 0.005043 -0.004257 0.061918
endloop
endfacet
facet normal 0.061672 -0.692165 -0.719100
outer loop
vertex 0.005890 -0.008565 0.066137
vertex 0.005043 -0.004257 0.061918
vertex 0.005890 -0.004340 0.062071
endloop
endfacet
facet normal 0.194618 -0.680225 -0.706695
outer loop
vertex 0.007561 -0.008400 0.066439
vertex 0.005890 -0.008565 0.066137
vertex 0.005890 -0.004340 0.062071
endloop
endfacet
facet normal 0.194621 -0.680224 -0.706695
outer loop
vertex 0.007561 -0.008400 0.066439
vertex 0.005890 -0.004340 0.062071
vertex 0.006736 -0.004257 0.062224
endloop
endfacet
facet normal 0.325132 -0.641849 -0.694492
outer loop
vertex 0.009167 -0.007913 0.066741
vertex 0.007561 -0.008400 0.066439
vertex 0.006736 -0.004257 0.062224
endloop
endfacet
facet normal 0.325129 -0.641850 -0.694493
outer loop
vertex 0.009167 -0.007913 0.066741
vertex 0.006736 -0.004257 0.062224
vertex 0.007550 -0.004010 0.062377
endloop
endfacet
facet normal 0.447823 -0.577621 -0.682501
outer loop
vertex 0.010648 -0.007121 0.067042
vertex 0.009167 -0.007913 0.066741
vertex 0.007550 -0.004010 0.062377
endloop
endfacet
facet normal 0.447823 -0.577620 -0.682503
outer loop
vertex 0.010648 -0.007121 0.067042
vertex 0.007550 -0.004010 0.062377
vertex 0.008301 -0.003609 0.062530
endloop
endfacet
facet normal 0.557456 -0.489247 -0.670730
outer loop
vertex 0.011946 -0.006056 0.067344
vertex 0.010648 -0.007121 0.067042
vertex 0.008301 -0.003609 0.062530
endloop
endfacet
facet normal 0.557447 -0.489252 -0.670735
outer loop
vertex 0.011946 -0.006056 0.067344
vertex 0.008301 -0.003609 0.062530
vertex 0.008958 -0.003069 0.062682
endloop
endfacet
facet normal -0.867420 0.088587 -0.489627
outer loop
vertex -0.002510 0.001671 0.073077
vertex 0.001633 0.000847 0.065588
vertex 0.001550 0.000031 0.065588
endloop
endfacet
facet normal -0.867421 0.088587 -0.489626
outer loop
vertex -0.002510 0.001671 0.073077
vertex 0.001550 0.000031 0.065588
vertex -0.002675 0.000062 0.073077
endloop
endfacet
facet normal -0.868606 -0.076090 -0.489626
outer loop
vertex -0.002675 0.000062 0.073077
vertex 0.001550 0.000031 0.065588
vertex 0.001621 -0.000785 0.065588
endloop
endfacet
facet normal -0.868606 -0.076090 -0.489627
outer loop
vertex -0.002675 0.000062 0.073077
vertex 0.001621 -0.000785 0.065588
vertex -0.002534 -0.001550 0.073077
endloop
endfacet
facet normal -0.838807 -0.238053 -0.489627
outer loop
vertex -0.002534 -0.001550 0.073077
vertex 0.001621 -0.000785 0.065588
vertex 0.001845 -0.001574 0.065588
endloop
endfacet
facet normal -0.838807 -0.238053 -0.489626
outer loop
vertex -0.002534 -0.001550 0.073077
vertex 0.001845 -0.001574 0.065588
vertex -0.002092 -0.003106 0.073077
endloop
endfacet
facet normal -0.779086 -0.391524 -0.489627
outer loop
vertex -0.002092 -0.003106 0.073077
vertex 0.001845 -0.001574 0.065588
vertex 0.002213 -0.002306 0.065588
endloop
endfacet
facet normal -0.779087 -0.391523 -0.489626
outer loop
vertex -0.002092 -0.003106 0.073077
vertex 0.002213 -0.002306 0.065588
vertex -0.001366 -0.004551 0.073077
endloop
endfacet
facet normal -0.691574 -0.531028 -0.489627
outer loop
vertex -0.001366 -0.004551 0.073077
vertex 0.002213 -0.002306 0.065588
vertex 0.002712 -0.002956 0.065588
endloop
endfacet
facet normal -0.691575 -0.531028 -0.489626
outer loop
vertex -0.001366 -0.004551 0.073077
vertex 0.002712 -0.002956 0.065588
vertex -0.000380 -0.005834 0.073077
endloop
endfacet
facet normal -0.579392 -0.651591 -0.489627
outer loop
vertex -0.000380 -0.005834 0.073077
vertex 0.002712 -0.002956 0.065588
vertex 0.003325 -0.003501 0.065588
endloop
endfacet
facet normal -0.579393 -0.651590 -0.489626
outer loop
vertex -0.000380 -0.005834 0.073077
vertex 0.003325 -0.003501 0.065588
vertex 0.000828 -0.006909 0.073077
endloop
endfacet
facet normal -0.446544 -0.748909 -0.489626
outer loop
vertex 0.000828 -0.006909 0.073077
vertex 0.003325 -0.003501 0.065588
vertex 0.004029 -0.003921 0.065588
endloop
endfacet
facet normal -0.446541 -0.748910 -0.489627
outer loop
vertex 0.000828 -0.006909 0.073077
vertex 0.004029 -0.003921 0.065588
vertex 0.002218 -0.007738 0.073077
endloop
endfacet
facet normal -0.297770 -0.819512 -0.489626
outer loop
vertex 0.002218 -0.007738 0.073077
vertex 0.004029 -0.003921 0.065588
vertex 0.004799 -0.004201 0.065588
endloop
endfacet
facet normal -0.297762 -0.819514 -0.489627
outer loop
vertex 0.002218 -0.007738 0.073077
vertex 0.004799 -0.004201 0.065588
vertex 0.003738 -0.008290 0.073077
endloop
endfacet
facet normal -0.138369 -0.860883 -0.489626
outer loop
vertex 0.003738 -0.008290 0.073077
vertex 0.004799 -0.004201 0.065588
vertex 0.005609 -0.004331 0.065588
endloop
endfacet
facet normal -0.138364 -0.860884 -0.489627
outer loop
vertex 0.003738 -0.008290 0.073077
vertex 0.005609 -0.004331 0.065588
vertex 0.005335 -0.008547 0.073077
endloop
endfacet
facet normal 0.025967 -0.871546 -0.489626
outer loop
vertex 0.005335 -0.008547 0.073077
vertex 0.005609 -0.004331 0.065588
vertex 0.006428 -0.004306 0.065588
endloop
endfacet
facet normal 0.025973 -0.871545 -0.489626
outer loop
vertex 0.005335 -0.008547 0.073077
vertex 0.006428 -0.004306 0.065588
vertex 0.006952 -0.008499 0.073077
endloop
endfacet
facet normal 0.189379 -0.851117 -0.489627
outer loop
vertex 0.006952 -0.008499 0.073077
vertex 0.006428 -0.004306 0.065588
vertex 0.007228 -0.004128 0.065588
endloop
endfacet
facet normal 0.189376 -0.851118 -0.489627
outer loop
vertex 0.006952 -0.008499 0.073077
vertex 0.007228 -0.004128 0.065588
vertex 0.008531 -0.008147 0.073077
endloop
endfacet
facet normal 0.346035 -0.800328 -0.489627
outer loop
vertex 0.008531 -0.008147 0.073077
vertex 0.007228 -0.004128 0.065588
vertex 0.007980 -0.003803 0.065588
endloop
endfacet
facet normal 0.346033 -0.800330 -0.489626
outer loop
vertex 0.008531 -0.008147 0.073077
vertex 0.007980 -0.003803 0.065588
vertex 0.010016 -0.007505 0.073077
endloop
endfacet
facet normal 0.490338 -0.720995 -0.489627
outer loop
vertex 0.010016 -0.007505 0.073077
vertex 0.007980 -0.003803 0.065588
vertex 0.008658 -0.003342 0.065588
endloop
endfacet
facet normal 0.490347 -0.720990 -0.489626
outer loop
vertex 0.010016 -0.007505 0.073077
vertex 0.008658 -0.003342 0.065588
vertex 0.011353 -0.006596 0.073077
endloop
endfacet
facet normal 0.617161 -0.615937 -0.489626
outer loop
vertex 0.011353 -0.006596 0.073077
vertex 0.008658 -0.003342 0.065588
vertex 0.009237 -0.002762 0.065588
endloop
endfacet
facet normal 0.617163 -0.615936 -0.489626
outer loop
vertex 0.011353 -0.006596 0.073077
vertex 0.009237 -0.002762 0.065588
vertex 0.012496 -0.005451 0.073077
endloop
endfacet
facet normal 0.721967 -0.488907 -0.489626
outer loop
vertex 0.012496 -0.005451 0.073077
vertex 0.009237 -0.002762 0.065588
vertex 0.009697 -0.002083 0.065588
endloop
endfacet
facet normal 0.721966 -0.488908 -0.489627
outer loop
vertex 0.012496 -0.005451 0.073077
vertex 0.009697 -0.002083 0.065588
vertex 0.013403 -0.004111 0.073077
endloop
endfacet
facet normal 0.801017 -0.344439 -0.489626
outer loop
vertex 0.013403 -0.004111 0.073077
vertex 0.009697 -0.002083 0.065588
vertex 0.010021 -0.001330 0.065588
endloop
endfacet
facet normal 0.801016 -0.344441 -0.489626
outer loop
vertex 0.013403 -0.004111 0.073077
vertex 0.010021 -0.001330 0.065588
vertex 0.014042 -0.002625 0.073077
endloop
endfacet
facet normal 0.851493 -0.187686 -0.489626
outer loop
vertex 0.014042 -0.002625 0.073077
vertex 0.010021 -0.001330 0.065588
vertex 0.010197 -0.000530 0.065588
endloop
endfacet
facet normal 0.851493 -0.187685 -0.489627
outer loop
vertex 0.014042 -0.002625 0.073077
vertex 0.010197 -0.000530 0.065588
vertex 0.014390 -0.001045 0.073077
endloop
endfacet
facet normal 0.871595 -0.024237 -0.489627
outer loop
vertex 0.014390 -0.001045 0.073077
vertex 0.010197 -0.000530 0.065588
vertex 0.010220 0.000290 0.065588
endloop
endfacet
facet normal 0.871596 -0.024236 -0.489626
outer loop
vertex 0.014390 -0.001045 0.073077
vertex 0.010220 0.000290 0.065588
vertex 0.014435 0.000571 0.073077
endloop
endfacet
facet normal 0.860607 0.140076 -0.489627
outer loop
vertex 0.014435 0.000571 0.073077
vertex 0.010220 0.000290 0.065588
vertex 0.010088 0.001099 0.065588
endloop
endfacet
facet normal 0.860606 0.140080 -0.489627
outer loop
vertex 0.014435 0.000571 0.073077
vertex 0.010088 0.001099 0.065588
vertex 0.014175 0.002168 0.073077
endloop
endfacet
facet normal 0.818920 0.299394 -0.489626
outer loop
vertex 0.014175 0.002168 0.073077
vertex 0.010088 0.001099 0.065588
vertex 0.009807 0.001868 0.065588
endloop
endfacet
facet normal 0.818920 0.299395 -0.489626
outer loop
vertex 0.014175 0.002168 0.073077
vertex 0.009807 0.001868 0.065588
vertex 0.013620 0.003687 0.073077
endloop
endfacet
facet normal 0.748019 0.448033 -0.489627
outer loop
vertex 0.013620 0.003687 0.073077
vertex 0.009807 0.001868 0.065588
vertex 0.009386 0.002572 0.065588
endloop
endfacet
facet normal 0.748019 0.448032 -0.489627
outer loop
vertex 0.013620 0.003687 0.073077
vertex 0.009386 0.002572 0.065588
vertex 0.012789 0.005075 0.073077
endloop
endfacet
facet normal 0.650436 0.580688 -0.489627
outer loop
vertex 0.012789 0.005075 0.073077
vertex 0.009386 0.002572 0.065588
vertex 0.008840 0.003183 0.065588
endloop
endfacet
facet normal 0.650436 0.580688 -0.489626
outer loop
vertex 0.012789 0.005075 0.073077
vertex 0.008840 0.003183 0.065588
vertex 0.011711 0.006282 0.073077
endloop
endfacet
facet normal 0.529649 0.692631 -0.489627
outer loop
vertex 0.011711 0.006282 0.073077
vertex 0.008840 0.003183 0.065588
vertex 0.008189 0.003681 0.065588
endloop
endfacet
facet normal 0.529650 0.692630 -0.489627
outer loop
vertex 0.011711 0.006282 0.073077
vertex 0.008189 0.003681 0.065588
vertex 0.010426 0.007264 0.073077
endloop
endfacet
facet normal 0.389976 0.779862 -0.489626
outer loop
vertex 0.010426 0.007264 0.073077
vertex 0.008189 0.003681 0.065588
vertex 0.007455 0.004048 0.065588
endloop
endfacet
facet normal 0.389970 0.779865 -0.489626
outer loop
vertex 0.010426 0.007264 0.073077
vertex 0.007455 0.004048 0.065588
vertex 0.008980 0.007988 0.073077
endloop
endfacet
facet normal 0.254966 -0.589699 -0.766321
outer loop
vertex 0.007980 -0.003803 0.065588
vertex 0.007228 -0.004128 0.065588
vertex 0.006737 -0.002164 0.063913
endloop
endfacet
facet normal 0.254960 -0.589701 -0.766322
outer loop
vertex 0.007980 -0.003803 0.065588
vertex 0.006737 -0.002164 0.063913
vertex 0.007079 -0.002016 0.063913
endloop
endfacet
facet normal 0.126657 0.551339 -0.824611
outer loop
vertex 0.007550 0.004010 0.064211
vertex 0.008301 0.003609 0.064059
vertex 0.007224 0.001351 0.062384
endloop
endfacet
facet normal -0.062324 0.570576 -0.818877
outer loop
vertex 0.007550 0.004010 0.064211
vertex 0.007224 0.001351 0.062384
vertex 0.006884 0.001533 0.062537
endloop
endfacet
facet normal 0.504915 0.302423 -0.808456
outer loop
vertex 0.009386 0.002572 0.065588
vertex 0.009807 0.001868 0.065588
vertex 0.007909 0.000560 0.063913
endloop
endfacet
facet normal 0.504913 0.302426 -0.808456
outer loop
vertex 0.009386 0.002572 0.065588
vertex 0.007909 0.000560 0.063913
vertex 0.007717 0.000880 0.063913
endloop
endfacet
facet normal 0.317156 -0.581890 -0.748877
outer loop
vertex 0.007550 -0.004010 0.062377
vertex 0.006736 -0.004257 0.062224
vertex 0.006514 -0.002222 0.060549
endloop
endfacet
facet normal 0.455891 -0.493223 -0.740874
outer loop
vertex 0.007550 -0.004010 0.062377
vertex 0.006514 -0.002222 0.060549
vertex 0.006884 -0.002110 0.060702
endloop
endfacet
facet normal 0.013289 0.557689 -0.829944
outer loop
vertex 0.006736 0.004257 0.064364
vertex 0.007550 0.004010 0.064211
vertex 0.006884 0.001533 0.062537
endloop
endfacet
facet normal -0.175282 0.542066 -0.821852
outer loop
vertex 0.006736 0.004257 0.064364
vertex 0.006884 0.001533 0.062537
vertex 0.006514 0.001645 0.062689
endloop
endfacet
facet normal 0.425036 -0.510115 -0.747748
outer loop
vertex 0.008301 -0.003609 0.062530
vertex 0.007550 -0.004010 0.062377
vertex 0.006884 -0.002110 0.060702
endloop
endfacet
facet normal 0.542815 -0.392380 -0.742556
outer loop
vertex 0.008301 -0.003609 0.062530
vertex 0.006884 -0.002110 0.060702
vertex 0.007224 -0.001928 0.060855
endloop
endfacet
facet normal -0.505391 -0.253980 -0.824666
outer loop
vertex 0.002213 -0.002306 0.065588
vertex 0.001845 -0.001574 0.065588
vertex 0.004292 -0.001004 0.063913
endloop
endfacet
facet normal -0.505398 -0.253979 -0.824662
outer loop
vertex 0.002213 -0.002306 0.065588
vertex 0.004292 -0.001004 0.063913
vertex 0.004459 -0.001336 0.063913
endloop
endfacet
facet normal 0.515649 -0.416151 -0.748949
outer loop
vertex 0.008958 -0.003069 0.062682
vertex 0.008301 -0.003609 0.062530
vertex 0.007224 -0.001928 0.060855
endloop
endfacet
facet normal 0.606616 -0.273754 -0.746375
outer loop
vertex 0.008958 -0.003069 0.062682
vertex 0.007224 -0.001928 0.060855
vertex 0.007523 -0.001683 0.061008
endloop
endfacet
facet normal 0.362713 -0.533333 -0.764195
outer loop
vertex 0.008658 -0.003342 0.065588
vertex 0.007980 -0.003803 0.065588
vertex 0.007079 -0.002016 0.063913
endloop
endfacet
facet normal 0.362721 -0.533331 -0.764194
outer loop
vertex 0.008658 -0.003342 0.065588
vertex 0.007079 -0.002016 0.063913
vertex 0.007387 -0.001807 0.063913
endloop
endfacet
facet normal 0.430352 0.384210 -0.816811
outer loop
vertex 0.008840 0.003183 0.065588
vertex 0.009386 0.002572 0.065588
vertex 0.007717 0.000880 0.063913
endloop
endfacet
facet normal 0.430352 0.384210 -0.816811
outer loop
vertex 0.008840 0.003183 0.065588
vertex 0.007717 0.000880 0.063913
vertex 0.007469 0.001158 0.063913
endloop
endfacet
facet normal 0.641649 -0.050913 -0.765307
outer loop
vertex 0.010146 -0.000847 0.063141
vertex 0.009899 -0.001661 0.062988
vertex 0.007951 -0.001043 0.061313
endloop
endfacet
facet normal 0.627877 0.126977 -0.767885
outer loop
vertex 0.010146 -0.000847 0.063141
vertex 0.007951 -0.001043 0.061313
vertex 0.008063 -0.000673 0.061466
endloop
endfacet
facet normal 0.526037 0.308418 -0.792567
outer loop
vertex 0.009899 0.001661 0.063600
vertex 0.010146 0.000847 0.063447
vertex 0.008063 0.000096 0.061772
endloop
endfacet
facet normal 0.405962 0.451601 -0.794513
outer loop
vertex 0.009899 0.001661 0.063600
vertex 0.008063 0.000096 0.061772
vertex 0.007951 0.000466 0.061925
endloop
endfacet
facet normal -0.457518 -0.351314 -0.816857
outer loop
vertex 0.002712 -0.002956 0.065588
vertex 0.002213 -0.002306 0.065588
vertex 0.004459 -0.001336 0.063913
endloop
endfacet
facet normal -0.457525 -0.351312 -0.816854
outer loop
vertex 0.002712 -0.002956 0.065588
vertex 0.004459 -0.001336 0.063913
vertex 0.004686 -0.001632 0.063913
endloop
endfacet
facet normal 0.443560 0.400481 -0.801791
outer loop
vertex 0.009498 0.002411 0.063753
vertex 0.009899 0.001661 0.063600
vertex 0.007951 0.000466 0.061925
endloop
endfacet
facet normal 0.296242 0.518206 -0.802311
outer loop
vertex 0.009498 0.002411 0.063753
vertex 0.007951 0.000466 0.061925
vertex 0.007768 0.000807 0.062078
endloop
endfacet
facet normal 0.456528 -0.455627 -0.764190
outer loop
vertex 0.009237 -0.002762 0.065588
vertex 0.008658 -0.003342 0.065588
vertex 0.007387 -0.001807 0.063913
endloop
endfacet
facet normal 0.456537 -0.455623 -0.764187
outer loop
vertex 0.009237 -0.002762 0.065588
vertex 0.007387 -0.001807 0.063913
vertex 0.007650 -0.001543 0.063913
endloop
endfacet
facet normal 0.343632 0.449355 -0.824620
outer loop
vertex 0.008189 0.003681 0.065588
vertex 0.008840 0.003183 0.065588
vertex 0.007469 0.001158 0.063913
endloop
endfacet
facet normal 0.343605 0.449357 -0.824629
outer loop
vertex 0.008189 0.003681 0.065588
vertex 0.007469 0.001158 0.063913
vertex 0.007173 0.001384 0.063913
endloop
endfacet
facet normal -0.542695 0.120695 -0.831213
outer loop
vertex 0.001880 0.001661 0.065435
vertex 0.002281 0.002411 0.065282
vertex 0.004490 0.000807 0.063607
endloop
endfacet
facet normal -0.584127 -0.051134 -0.810050
outer loop
vertex 0.001880 0.001661 0.065435
vertex 0.004490 0.000807 0.063607
vertex 0.004307 0.000466 0.063760
endloop
endfacet
facet normal -0.465463 -0.455018 -0.759146
outer loop
vertex 0.001633 -0.000847 0.061001
vertex 0.004195 -0.000673 0.059326
vertex 0.004307 -0.001043 0.059479
endloop
endfacet
facet normal -0.488197 -0.301882 -0.818860
outer loop
vertex 0.001633 -0.000847 0.061001
vertex 0.004307 -0.001043 0.059479
vertex 0.001880 -0.001661 0.061153
endloop
endfacet
facet normal -0.391048 -0.439776 -0.808504
outer loop
vertex 0.003325 -0.003501 0.065588
vertex 0.002712 -0.002956 0.065588
vertex 0.004686 -0.001632 0.063913
endloop
endfacet
facet normal -0.391045 -0.439777 -0.808504
outer loop
vertex 0.003325 -0.003501 0.065588
vertex 0.004686 -0.001632 0.063913
vertex 0.004964 -0.001879 0.063913
endloop
endfacet
facet normal 0.239080 0.523097 -0.818053
outer loop
vertex 0.008301 0.003609 0.064059
vertex 0.008958 0.003069 0.063906
vertex 0.007523 0.001106 0.062231
endloop
endfacet
facet normal 0.056866 0.577211 -0.814612
outer loop
vertex 0.008301 0.003609 0.064059
vertex 0.007523 0.001106 0.062231
vertex 0.007224 0.001351 0.062384
endloop
endfacet
facet normal 0.531978 -0.360249 -0.766303
outer loop
vertex 0.009697 -0.002083 0.065588
vertex 0.009237 -0.002762 0.065588
vertex 0.007650 -0.001543 0.063913
endloop
endfacet
facet normal 0.531983 -0.360249 -0.766299
outer loop
vertex 0.009697 -0.002083 0.065588
vertex 0.007650 -0.001543 0.063913
vertex 0.007859 -0.001235 0.063913
endloop
endfacet
facet normal 0.248332 0.496613 -0.831689
outer loop
vertex 0.007455 0.004048 0.065588
vertex 0.008189 0.003681 0.065588
vertex 0.007173 0.001384 0.063913
endloop
endfacet
facet normal 0.248334 0.496613 -0.831688
outer loop
vertex 0.007455 0.004048 0.065588
vertex 0.007173 0.001384 0.063913
vertex 0.006840 0.001550 0.063913
endloop
endfacet
facet normal -0.097126 0.543178 -0.833981
outer loop
vertex 0.005890 0.004340 0.064517
vertex 0.006736 0.004257 0.064364
vertex 0.006514 0.001645 0.062689
endloop
endfacet
facet normal -0.278650 0.494062 -0.823564
outer loop
vertex 0.005890 0.004340 0.064517
vertex 0.006514 0.001645 0.062689
vertex 0.006129 0.001683 0.062842
endloop
endfacet
facet normal -0.307347 -0.515463 -0.799897
outer loop
vertex 0.004029 -0.003921 0.065588
vertex 0.003325 -0.003501 0.065588
vertex 0.004964 -0.001879 0.063913
endloop
endfacet
facet normal -0.307367 -0.515460 -0.799892
outer loop
vertex 0.004029 -0.003921 0.065588
vertex 0.004964 -0.001879 0.063913
vertex 0.005284 -0.002070 0.063913
endloop
endfacet
facet normal 0.585712 -0.251860 -0.770395
outer loop
vertex 0.010021 -0.001330 0.065588
vertex 0.009697 -0.002083 0.065588
vertex 0.007859 -0.001235 0.063913
endloop
endfacet
facet normal 0.585717 -0.251859 -0.770391
outer loop
vertex 0.010021 -0.001330 0.065588
vertex 0.007859 -0.001235 0.063913
vertex 0.008006 -0.000893 0.063913
endloop
endfacet
facet normal -0.208769 -0.574577 -0.791376
outer loop
vertex 0.004799 -0.004201 0.065588
vertex 0.004029 -0.003921 0.065588
vertex 0.005284 -0.002070 0.063913
endloop
endfacet
facet normal -0.208764 -0.574578 -0.791377
outer loop
vertex 0.004799 -0.004201 0.065588
vertex 0.005284 -0.002070 0.063913
vertex 0.005634 -0.002197 0.063913
endloop
endfacet
facet normal 0.615730 -0.135719 -0.776181
outer loop
vertex 0.010197 -0.000530 0.065588
vertex 0.010021 -0.001330 0.065588
vertex 0.008006 -0.000893 0.063913
endloop
endfacet
facet normal 0.615735 -0.135723 -0.776176
outer loop
vertex 0.010197 -0.000530 0.065588
vertex 0.008006 -0.000893 0.063913
vertex 0.008086 -0.000529 0.063913
endloop
endfacet
facet normal -0.296331 0.457964 -0.838127
outer loop
vertex 0.004229 0.004010 0.064823
vertex 0.005043 0.004257 0.064670
vertex 0.005744 0.001645 0.062995
endloop
endfacet
facet normal -0.446632 0.350214 -0.823328
outer loop
vertex 0.004229 0.004010 0.064823
vertex 0.005744 0.001645 0.062995
vertex 0.005374 0.001533 0.063148
endloop
endfacet
facet normal -0.504700 0.220122 -0.834760
outer loop
vertex 0.002281 0.002411 0.065282
vertex 0.002821 0.003069 0.065129
vertex 0.004735 0.001106 0.063454
endloop
endfacet
facet normal -0.576939 0.056481 -0.814832
outer loop
vertex 0.002281 0.002411 0.065282
vertex 0.004735 0.001106 0.063454
vertex 0.004490 0.000807 0.063607
endloop
endfacet
facet normal -0.098642 -0.613715 -0.783341
outer loop
vertex 0.005609 -0.004331 0.065588
vertex 0.004799 -0.004201 0.065588
vertex 0.005634 -0.002197 0.063913
endloop
endfacet
facet normal -0.098653 -0.613715 -0.783340
outer loop
vertex 0.005609 -0.004331 0.065588
vertex 0.005634 -0.002197 0.063913
vertex 0.006001 -0.002256 0.063913
endloop
endfacet
facet normal -0.562685 0.015466 -0.826527
outer loop
vertex 0.001633 0.000847 0.065588
vertex 0.001880 0.001661 0.065435
vertex 0.004307 0.000466 0.063760
endloop
endfacet
facet normal -0.572418 -0.158898 -0.804419
outer loop
vertex 0.001633 0.000847 0.065588
vertex 0.004307 0.000466 0.063760
vertex 0.004195 0.000096 0.063913
endloop
endfacet
facet normal 0.621406 -0.017278 -0.783298
outer loop
vertex 0.010220 0.000290 0.065588
vertex 0.010197 -0.000530 0.065588
vertex 0.008086 -0.000529 0.063913
endloop
endfacet
facet normal 0.621412 -0.017281 -0.783293
outer loop
vertex 0.010220 0.000290 0.065588
vertex 0.008086 -0.000529 0.063913
vertex 0.008096 -0.000157 0.063913
endloop
endfacet
facet normal -0.448377 -0.402315 -0.798186
outer loop
vertex 0.002281 -0.002411 0.061306
vertex 0.001880 -0.001661 0.061153
vertex 0.004307 -0.001043 0.059479
endloop
endfacet
facet normal -0.341580 -0.530557 -0.775779
outer loop
vertex 0.002281 -0.002411 0.061306
vertex 0.004307 -0.001043 0.059479
vertex 0.004490 -0.001384 0.059631
endloop
endfacet
facet normal -0.535085 0.054647 -0.843029
outer loop
vertex 0.001550 0.000031 0.065588
vertex 0.001633 0.000847 0.065588
vertex 0.004195 0.000096 0.063913
endloop
endfacet
facet normal -0.535088 0.054647 -0.843027
outer loop
vertex 0.001550 0.000031 0.065588
vertex 0.004195 0.000096 0.063913
vertex 0.004157 -0.000274 0.063913
endloop
endfacet
facet normal -0.051486 -0.642863 -0.764249
outer loop
vertex 0.005043 -0.004257 0.061918
vertex 0.004229 -0.004010 0.061765
vertex 0.005374 -0.002110 0.060090
endloop
endfacet
facet normal 0.110841 -0.654215 -0.748142
outer loop
vertex 0.005043 -0.004257 0.061918
vertex 0.005374 -0.002110 0.060090
vertex 0.005744 -0.002222 0.060243
endloop
endfacet
facet normal -0.379878 0.391163 -0.838262
outer loop
vertex 0.003478 0.003609 0.064976
vertex 0.004229 0.004010 0.064823
vertex 0.005374 0.001533 0.063148
endloop
endfacet
facet normal -0.507456 0.259933 -0.821537
outer loop
vertex 0.003478 0.003609 0.064976
vertex 0.005374 0.001533 0.063148
vertex 0.005034 0.001351 0.063301
endloop
endfacet
facet normal 0.018778 -0.630187 -0.776216
outer loop
vertex 0.006428 -0.004306 0.065588
vertex 0.005609 -0.004331 0.065588
vertex 0.006001 -0.002256 0.063913
endloop
endfacet
facet normal 0.018778 -0.630187 -0.776216
outer loop
vertex 0.006428 -0.004306 0.065588
vertex 0.006001 -0.002256 0.063913
vertex 0.006374 -0.002245 0.063913
endloop
endfacet
facet normal 0.072876 -0.648805 -0.757457
outer loop
vertex 0.005890 -0.004340 0.062071
vertex 0.005043 -0.004257 0.061918
vertex 0.005744 -0.002222 0.060243
endloop
endfacet
facet normal 0.234041 -0.626013 -0.743864
outer loop
vertex 0.005890 -0.004340 0.062071
vertex 0.005744 -0.002222 0.060243
vertex 0.006129 -0.002260 0.060396
endloop
endfacet
facet normal -0.449935 0.311101 -0.837123
outer loop
vertex 0.002821 0.003069 0.065129
vertex 0.003478 0.003609 0.064976
vertex 0.005034 0.001351 0.063301
endloop
endfacet
facet normal -0.551181 0.161100 -0.818686
outer loop
vertex 0.002821 0.003069 0.065129
vertex 0.005034 0.001351 0.063301
vertex 0.004735 0.001106 0.063454
endloop
endfacet
facet normal 0.603450 0.098222 -0.791328
outer loop
vertex 0.010088 0.001099 0.065588
vertex 0.010220 0.000290 0.065588
vertex 0.008096 -0.000157 0.063913
endloop
endfacet
facet normal 0.603445 0.098221 -0.791332
outer loop
vertex 0.010088 0.001099 0.065588
vertex 0.008096 -0.000157 0.063913
vertex 0.008036 0.000210 0.063913
endloop
endfacet
facet normal 0.668675 -0.179504 -0.721563
outer loop
vertex 0.008958 -0.003069 0.062682
vertex 0.007523 -0.001683 0.061008
vertex 0.007768 -0.001384 0.061160
endloop
endfacet
facet normal 0.571142 -0.290208 -0.767839
outer loop
vertex 0.008958 -0.003069 0.062682
vertex 0.007768 -0.001384 0.061160
vertex 0.009498 -0.002411 0.062835
endloop
endfacet
facet normal -0.201275 0.509323 -0.836707
outer loop
vertex 0.005043 0.004257 0.064670
vertex 0.005890 0.004340 0.064517
vertex 0.006129 0.001683 0.062842
endloop
endfacet
facet normal -0.369813 0.429185 -0.824038
outer loop
vertex 0.005043 0.004257 0.064670
vertex 0.006129 0.001683 0.062842
vertex 0.005744 0.001645 0.062995
endloop
endfacet
facet normal -0.543768 -0.047635 -0.837882
outer loop
vertex 0.001621 -0.000785 0.065588
vertex 0.001550 0.000031 0.065588
vertex 0.004157 -0.000274 0.063913
endloop
endfacet
facet normal -0.543772 -0.047634 -0.837880
outer loop
vertex 0.001621 -0.000785 0.065588
vertex 0.004157 -0.000274 0.063913
vertex 0.004190 -0.000645 0.063913
endloop
endfacet
facet normal 0.683308 -0.038182 -0.729131
outer loop
vertex 0.009498 -0.002411 0.062835
vertex 0.007768 -0.001384 0.061160
vertex 0.007951 -0.001043 0.061313
endloop
endfacet
facet normal 0.611078 -0.169046 -0.773310
outer loop
vertex 0.009498 -0.002411 0.062835
vertex 0.007951 -0.001043 0.061313
vertex 0.009899 -0.001661 0.062988
endloop
endfacet
facet normal -0.371565 -0.488488 -0.789506
outer loop
vertex 0.002821 -0.003069 0.061459
vertex 0.002281 -0.002411 0.061306
vertex 0.004490 -0.001384 0.059631
endloop
endfacet
facet normal -0.243025 -0.592503 -0.768036
outer loop
vertex 0.002821 -0.003069 0.061459
vertex 0.004490 -0.001384 0.059631
vertex 0.004735 -0.001683 0.059784
endloop
endfacet
facet normal 0.138474 -0.622317 -0.770420
outer loop
vertex 0.007228 -0.004128 0.065588
vertex 0.006428 -0.004306 0.065588
vertex 0.006374 -0.002245 0.063913
endloop
endfacet
facet normal 0.138471 -0.622318 -0.770419
outer loop
vertex 0.007228 -0.004128 0.065588
vertex 0.006374 -0.002245 0.063913
vertex 0.006737 -0.002164 0.063913
endloop
endfacet
facet normal 0.628574 0.077844 -0.773844
outer loop
vertex 0.010230 0.000000 0.063294
vertex 0.010146 -0.000847 0.063141
vertex 0.008063 -0.000673 0.061466
endloop
endfacet
facet normal 0.577031 0.251980 -0.776879
outer loop
vertex 0.010230 0.000000 0.063294
vertex 0.008063 -0.000673 0.061466
vertex 0.008101 -0.000289 0.061619
endloop
endfacet
facet normal -0.277855 -0.559729 -0.780705
outer loop
vertex 0.003478 -0.003609 0.061612
vertex 0.002821 -0.003069 0.061459
vertex 0.004735 -0.001683 0.059784
endloop
endfacet
facet normal -0.132353 -0.635573 -0.760612
outer loop
vertex 0.003478 -0.003609 0.061612
vertex 0.004735 -0.001683 0.059784
vertex 0.005034 -0.001928 0.059937
endloop
endfacet
facet normal 0.563709 0.206091 -0.799849
outer loop
vertex 0.009807 0.001868 0.065588
vertex 0.010088 0.001099 0.065588
vertex 0.008036 0.000210 0.063913
endloop
endfacet
facet normal 0.563712 0.206091 -0.799847
outer loop
vertex 0.009807 0.001868 0.065588
vertex 0.008036 0.000210 0.063913
vertex 0.007909 0.000560 0.063913
endloop
endfacet
facet normal 0.589050 0.199433 -0.783100
outer loop
vertex 0.010146 0.000847 0.063447
vertex 0.010230 0.000000 0.063294
vertex 0.008101 -0.000289 0.061619
endloop
endfacet
facet normal 0.501452 0.361788 -0.785911
outer loop
vertex 0.010146 0.000847 0.063447
vertex 0.008101 -0.000289 0.061619
vertex 0.008063 0.000096 0.061772
endloop
endfacet
facet normal -0.169938 -0.612300 -0.772146
outer loop
vertex 0.004229 -0.004010 0.061765
vertex 0.003478 -0.003609 0.061612
vertex 0.005034 -0.001928 0.059937
endloop
endfacet
facet normal -0.012976 -0.656915 -0.753853
outer loop
vertex 0.004229 -0.004010 0.061765
vertex 0.005034 -0.001928 0.059937
vertex 0.005374 -0.002110 0.060090
endloop
endfacet
facet normal -0.534094 -0.151576 -0.831726
outer loop
vertex 0.001845 -0.001574 0.065588
vertex 0.001621 -0.000785 0.065588
vertex 0.004190 -0.000645 0.063913
endloop
endfacet
facet normal -0.534092 -0.151576 -0.831728
outer loop
vertex 0.001845 -0.001574 0.065588
vertex 0.004190 -0.000645 0.063913
vertex 0.004292 -0.001004 0.063913
endloop
endfacet
facet normal 0.346296 0.472614 -0.810379
outer loop
vertex 0.008958 0.003069 0.063906
vertex 0.009498 0.002411 0.063753
vertex 0.007768 0.000807 0.062078
endloop
endfacet
facet normal 0.178017 0.560109 -0.809066
outer loop
vertex 0.008958 0.003069 0.063906
vertex 0.007768 0.000807 0.062078
vertex 0.007523 0.001106 0.062231
endloop
endfacet
facet normal 0.197744 -0.628557 -0.752206
outer loop
vertex 0.006736 -0.004257 0.062224
vertex 0.005890 -0.004340 0.062071
vertex 0.006129 -0.002260 0.060396
endloop
endfacet
facet normal 0.351042 -0.571986 -0.741352
outer loop
vertex 0.006736 -0.004257 0.062224
vertex 0.006129 -0.002260 0.060396
vertex 0.006514 -0.002222 0.060549
endloop
endfacet
facet normal -0.470226 -0.882540 0.003333
outer loop
vertex 0.006884 0.001533 0.062537
vertex 0.007224 0.001351 0.062384
vertex 0.007173 0.001384 0.063913
endloop
endfacet
facet normal -0.447252 -0.894404 -0.002795
outer loop
vertex 0.006884 0.001533 0.062537
vertex 0.007173 0.001384 0.063913
vertex 0.006840 0.001550 0.063913
endloop
endfacet
facet normal -0.633295 -0.773902 0.003584
outer loop
vertex 0.007224 0.001351 0.062384
vertex 0.007523 0.001106 0.062231
vertex 0.007469 0.001158 0.063913
endloop
endfacet
facet normal -0.607438 -0.794361 -0.003141
outer loop
vertex 0.007224 0.001351 0.062384
vertex 0.007469 0.001158 0.063913
vertex 0.007173 0.001384 0.063913
endloop
endfacet
facet normal -0.772065 -0.635533 0.003737
outer loop
vertex 0.007523 0.001106 0.062231
vertex 0.007768 0.000807 0.062078
vertex 0.007717 0.000880 0.063913
endloop
endfacet
facet normal -0.745967 -0.665974 -0.003363
outer loop
vertex 0.007523 0.001106 0.062231
vertex 0.007717 0.000880 0.063913
vertex 0.007469 0.001158 0.063913
endloop
endfacet
facet normal -0.881202 -0.472724 0.003814
outer loop
vertex 0.007768 0.000807 0.062078
vertex 0.007951 0.000466 0.061925
vertex 0.007909 0.000560 0.063913
endloop
endfacet
facet normal -0.857880 -0.513837 -0.003492
outer loop
vertex 0.007768 0.000807 0.062078
vertex 0.007909 0.000560 0.063913
vertex 0.007717 0.000880 0.063913
endloop
endfacet
facet normal -0.956492 -0.291733 0.003832
outer loop
vertex 0.007951 0.000466 0.061925
vertex 0.008063 0.000096 0.061772
vertex 0.008036 0.000210 0.063913
endloop
endfacet
facet normal -0.939196 -0.343365 -0.003550
outer loop
vertex 0.007951 0.000466 0.061925
vertex 0.008036 0.000210 0.063913
vertex 0.007909 0.000560 0.063913
endloop
endfacet
facet normal -0.995029 -0.099511 0.003802
outer loop
vertex 0.008063 0.000096 0.061772
vertex 0.008101 -0.000289 0.061619
vertex 0.008096 -0.000157 0.063913
endloop
endfacet
facet normal -0.987005 -0.160652 -0.003553
outer loop
vertex 0.008063 0.000096 0.061772
vertex 0.008096 -0.000157 0.063913
vertex 0.008036 0.000210 0.063913
endloop
endfacet
facet normal -0.995321 0.096551 0.003732
outer loop
vertex 0.008101 -0.000289 0.061619
vertex 0.008063 -0.000673 0.061466
vertex 0.008086 -0.000529 0.063913
endloop
endfacet
facet normal -0.999608 0.027789 -0.003510
outer loop
vertex 0.008101 -0.000289 0.061619
vertex 0.008086 -0.000529 0.063913
vertex 0.008096 -0.000157 0.063913
endloop
endfacet
facet normal -0.957351 0.288903 0.003631
outer loop
vertex 0.008063 -0.000673 0.061466
vertex 0.007951 -0.001043 0.061313
vertex 0.008006 -0.000893 0.063913
endloop
endfacet
facet normal -0.976553 0.215250 -0.003431
outer loop
vertex 0.008063 -0.000673 0.061466
vertex 0.008006 -0.000893 0.063913
vertex 0.008086 -0.000529 0.063913
endloop
endfacet
facet normal -0.882568 0.470171 0.003502
outer loop
vertex 0.007951 -0.001043 0.061313
vertex 0.007768 -0.001384 0.061160
vertex 0.007859 -0.001235 0.063913
endloop
endfacet
facet normal -0.918662 0.395031 -0.003322
outer loop
vertex 0.007951 -0.001043 0.061313
vertex 0.007859 -0.001235 0.063913
vertex 0.008006 -0.000893 0.063913
endloop
endfacet
facet normal -0.773847 0.633363 0.003351
outer loop
vertex 0.007768 -0.001384 0.061160
vertex 0.007523 -0.001683 0.061008
vertex 0.007650 -0.001543 0.063913
endloop
endfacet
facet normal -0.828001 0.560717 -0.003188
outer loop
vertex 0.007768 -0.001384 0.061160
vertex 0.007650 -0.001543 0.063913
vertex 0.007859 -0.001235 0.063913
endloop
endfacet
facet normal -0.635365 0.772205 0.003181
outer loop
vertex 0.007523 -0.001683 0.061008
vertex 0.007224 -0.001928 0.060855
vertex 0.007387 -0.001807 0.063913
endloop
endfacet
facet normal -0.707804 0.706402 -0.003033
outer loop
vertex 0.007523 -0.001683 0.061008
vertex 0.007387 -0.001807 0.063913
vertex 0.007650 -0.001543 0.063913
endloop
endfacet
facet normal -0.472439 0.881358 0.002994
outer loop
vertex 0.007224 -0.001928 0.060855
vertex 0.006884 -0.002110 0.060702
vertex 0.007079 -0.002016 0.063913
endloop
endfacet
facet normal -0.562359 0.826888 -0.002860
outer loop
vertex 0.007224 -0.001928 0.060855
vertex 0.007079 -0.002016 0.063913
vertex 0.007387 -0.001807 0.063913
endloop
endfacet
facet normal -0.291341 0.956615 0.002792
outer loop
vertex 0.006884 -0.002110 0.060702
vertex 0.006514 -0.002222 0.060549
vertex 0.006737 -0.002164 0.063913
endloop
endfacet
facet normal -0.396855 0.917877 -0.002672
outer loop
vertex 0.006884 -0.002110 0.060702
vertex 0.006737 -0.002164 0.063913
vertex 0.007079 -0.002016 0.063913
endloop
endfacet
facet normal -0.099033 0.995081 0.002578
outer loop
vertex 0.006514 -0.002222 0.060549
vertex 0.006129 -0.002260 0.060396
vertex 0.006374 -0.002245 0.063913
endloop
endfacet
facet normal -0.217194 0.976125 -0.002470
outer loop
vertex 0.006514 -0.002222 0.060549
vertex 0.006374 -0.002245 0.063913
vertex 0.006737 -0.002164 0.063913
endloop
endfacet
facet normal 0.097091 0.995273 0.002353
outer loop
vertex 0.006129 -0.002260 0.060396
vertex 0.005744 -0.002222 0.060243
vertex 0.006001 -0.002256 0.063913
endloop
endfacet
facet normal -0.029784 0.999554 -0.002257
outer loop
vertex 0.006129 -0.002260 0.060396
vertex 0.006001 -0.002256 0.063913
vertex 0.006374 -0.002245 0.063913
endloop
endfacet
facet normal 0.289481 0.957181 0.002119
outer loop
vertex 0.005744 -0.002222 0.060243
vertex 0.005374 -0.002110 0.060090
vertex 0.005634 -0.002197 0.063913
endloop
endfacet
facet normal 0.158688 0.987327 -0.002034
outer loop
vertex 0.005744 -0.002222 0.060243
vertex 0.005634 -0.002197 0.063913
vertex 0.006001 -0.002256 0.063913
endloop
endfacet
facet normal 0.470741 0.882270 0.001875
outer loop
vertex 0.005374 -0.002110 0.060090
vertex 0.005034 -0.001928 0.059937
vertex 0.005284 -0.002070 0.063913
endloop
endfacet
facet normal 0.341501 0.939880 -0.001802
outer loop
vertex 0.005374 -0.002110 0.060090
vertex 0.005284 -0.002070 0.063913
vertex 0.005634 -0.002197 0.063913
endloop
endfacet
facet normal 0.633896 0.773416 0.001625
outer loop
vertex 0.005034 -0.001928 0.059937
vertex 0.004735 -0.001683 0.059784
vertex 0.004964 -0.001879 0.063913
endloop
endfacet
facet normal 0.512131 0.858906 -0.001562
outer loop
vertex 0.005034 -0.001928 0.059937
vertex 0.004964 -0.001879 0.063913
vertex 0.005284 -0.002070 0.063913
endloop
endfacet
facet normal 0.772667 0.634811 0.001367
outer loop
vertex 0.004735 -0.001683 0.059784
vertex 0.004490 -0.001384 0.059631
vertex 0.004686 -0.001632 0.063913
endloop
endfacet
facet normal 0.664492 0.747294 -0.001315
outer loop
vertex 0.004735 -0.001683 0.059784
vertex 0.004686 -0.001632 0.063913
vertex 0.004964 -0.001879 0.063913
endloop
endfacet
facet normal 0.881715 0.471782 0.001104
outer loop
vertex 0.004490 -0.001384 0.059631
vertex 0.004307 -0.001043 0.059479
vertex 0.004459 -0.001336 0.063913
endloop
endfacet
facet normal 0.793151 0.609024 -0.001062
outer loop
vertex 0.004490 -0.001384 0.059631
vertex 0.004459 -0.001336 0.063913
vertex 0.004686 -0.001632 0.063913
endloop
endfacet
facet normal 0.956844 0.290600 0.000835
outer loop
vertex 0.004307 -0.001043 0.059479
vertex 0.004195 -0.000673 0.059326
vertex 0.004292 -0.001004 0.063913
endloop
endfacet
facet normal 0.893517 0.449029 -0.000804
outer loop
vertex 0.004307 -0.001043 0.059479
vertex 0.004292 -0.001004 0.063913
vertex 0.004459 -0.001336 0.063913
endloop
endfacet
endsolid Exported from Blender-2.81 (sub 16)
