solid Exported from Blender-2.81 (sub 16)
facet normal 0.904145 0.000000 0.427226
outer loop
vertex 0.002184 -0.003706 0.015406
vertex 0.002184 0.003706 0.015406
vertex -0.004110 0.010000 0.028727
endloop
endfacet
facet normal 0.904145 0.000000 0.427226
outer loop
vertex 0.002184 -0.003706 0.015406
vertex -0.004110 0.010000 0.028727
vertex -0.004110 -0.010000 0.028727
endloop
endfacet
facet normal 0.000000 -0.904145 0.427226
outer loop
vertex 0.002184 0.003706 0.015406
vertex 0.009595 0.003706 0.015406
vertex 0.015890 0.010000 0.028727
endloop
endfacet
facet normal 0.000000 -0.904145 0.427226
outer loop
vertex 0.002184 0.003706 0.015406
vertex 0.015890 0.010000 0.028727
vertex -0.004110 0.010000 0.028727
endloop
endfacet
facet normal -0.904145 0.000000 0.427226
outer loop
vertex 0.009595 0.003706 0.015406
vertex 0.009595 -0.003706 0.015406
vertex 0.015890 -0.010000 0.028727
endloop
endfacet
facet normal -0.904145 0.000000 0.427226
outer loop
vertex 0.009595 0.003706 0.015406
vertex 0.015890 -0.010000 0.028727
vertex 0.015890 0.010000 0.028727
endloop
endfacet
facet normal 0.000000 0.904145 0.427226
outer loop
vertex 0.009595 -0.003706 0.015406
vertex 0.002184 -0.003706 0.015406
vertex -0.004110 -0.010000 0.028727
endloop
endfacet
facet normal 0.000000 0.904145 0.427226
outer loop
vertex 0.009595 -0.003706 0.015406
vertex -0.004110 -0.010000 0.028727
vertex 0.015890 -0.010000 0.028727
endloop
endfacet
facet normal -0.904145 0.000000 -0.427226
outer loop
vertex 0.001572 -0.004318 0.015406
vertex -0.004722 -0.010612 0.028727
vertex -0.004722 0.010612 0.028727
endloop
endfacet
facet normal -0.904145 0.000000 -0.427226
outer loop
vertex 0.001572 -0.004318 0.015406
vertex -0.004722 0.010612 0.028727
vertex 0.001572 0.004318 0.015406
endloop
endfacet
facet normal 0.000000 0.904145 -0.427226
outer loop
vertex 0.001572 0.004318 0.015406
vertex -0.004722 0.010612 0.028727
vertex 0.016502 0.010612 0.028727
endloop
endfacet
facet normal 0.000000 0.904145 -0.427226
outer loop
vertex 0.001572 0.004318 0.015406
vertex 0.016502 0.010612 0.028727
vertex 0.010207 0.004318 0.015406
endloop
endfacet
facet normal 0.904145 0.000000 -0.427226
outer loop
vertex 0.010207 0.004318 0.015406
vertex 0.016502 0.010612 0.028727
vertex 0.016502 -0.010612 0.028727
endloop
endfacet
facet normal 0.904145 0.000000 -0.427226
outer loop
vertex 0.010207 0.004318 0.015406
vertex 0.016502 -0.010612 0.028727
vertex 0.010207 -0.004318 0.015406
endloop
endfacet
facet normal 0.000000 -0.904145 -0.427226
outer loop
vertex 0.010207 -0.004318 0.015406
vertex 0.016502 -0.010612 0.028727
vertex -0.004722 -0.010612 0.028727
endloop
endfacet
facet normal 0.000000 -0.904145 -0.427226
outer loop
vertex 0.010207 -0.004318 0.015406
vertex -0.004722 -0.010612 0.028727
vertex 0.001572 -0.004318 0.015406
endloop
endfacet
facet normal 0.000000 -1.000000 0.000000
outer loop
vertex -0.004722 -0.010612 0.028727
vertex 0.016502 -0.010612 0.028727
vertex 0.016502 -0.010612 0.075980
endloop
endfacet
facet normal 0.000000 -1.000000 0.000000
outer loop
vertex -0.004722 -0.010612 0.028727
vertex 0.016502 -0.010612 0.075980
vertex -0.004722 -0.010612 0.075980
endloop
endfacet
facet normal -1.000000 0.000000 0.000000
outer loop
vertex -0.004722 0.010612 0.028727
vertex -0.004722 -0.010612 0.028727
vertex -0.004722 -0.010612 0.075980
endloop
endfacet
facet normal -1.000000 0.000000 0.000000
outer loop
vertex -0.004722 0.010612 0.028727
vertex -0.004722 -0.010612 0.075980
vertex -0.004722 0.010612 0.075980
endloop
endfacet
facet normal 0.000000 -1.000000 0.000000
outer loop
vertex -0.004110 0.010000 0.028727
vertex 0.015890 0.010000 0.028727
vertex 0.015890 0.010000 0.075980
endloop
endfacet
facet normal 0.000000 -1.000000 0.000000
outer loop
vertex -0.004110 0.010000 0.028727
vertex 0.015890 0.010000 0.075980
vertex -0.004110 0.010000 0.075980
endloop
endfacet
facet normal 1.000000 0.000000 0.000000
outer loop
vertex 0.016502 -0.010612 0.028727
vertex 0.016502 0.010612 0.028727
vertex 0.016502 0.010612 0.075980
endloop
endfacet
facet normal 1.000000 0.000000 0.000000
outer loop
vertex 0.016502 -0.010612 0.028727
vertex 0.016502 0.010612 0.075980
vertex 0.016502 -0.010612 0.075980
endloop
endfacet
facet normal 0.000003 0.000000 -1.000000
outer loop
vertex 0.001572 -0.004318 0.015406
vertex 0.001572 0.004318 0.015406
vertex 0.002184 0.003706 0.015406
endloop
endfacet
facet normal -0.000003 0.000000 -1.000000
outer loop
vertex 0.001572 -0.004318 0.015406
vertex 0.002184 0.003706 0.015406
vertex 0.002184 -0.003706 0.015406
endloop
endfacet
facet normal 0.000000 0.000000 -1.000000
outer loop
vertex 0.001572 0.004318 0.015406
vertex 0.010207 0.004318 0.015406
vertex 0.009595 0.003706 0.015406
endloop
endfacet
facet normal 0.000000 0.000000 -1.000000
outer loop
vertex 0.001572 0.004318 0.015406
vertex 0.009595 0.003706 0.015406
vertex 0.002184 0.003706 0.015406
endloop
endfacet
facet normal -0.000003 0.000000 -1.000000
outer loop
vertex 0.010207 0.004318 0.015406
vertex 0.010207 -0.004318 0.015406
vertex 0.009595 -0.003706 0.015406
endloop
endfacet
facet normal 0.000003 0.000000 -1.000000
outer loop
vertex 0.010207 0.004318 0.015406
vertex 0.009595 -0.003706 0.015406
vertex 0.009595 0.003706 0.015406
endloop
endfacet
facet normal 0.000000 0.000000 -1.000000
outer loop
vertex 0.010207 -0.004318 0.015406
vertex 0.001572 -0.004318 0.015406
vertex 0.002184 -0.003706 0.015406
endloop
endfacet
facet normal 0.000000 0.000000 -1.000000
outer loop
vertex 0.010207 -0.004318 0.015406
vertex 0.002184 -0.003706 0.015406
vertex 0.009595 -0.003706 0.015406
endloop
endfacet
facet normal -0.450613 0.000000 0.892719
outer loop
vertex 0.015890 0.010000 0.075980
vertex 0.015890 -0.010000 0.075980
vertex 0.103099 -0.003099 0.120000
endloop
endfacet
facet normal -0.450613 0.000000 0.892720
outer loop
vertex 0.015890 0.010000 0.075980
vertex 0.103099 -0.003099 0.120000
vertex 0.103099 0.003099 0.120000
endloop
endfacet
facet normal -0.398109 0.000000 0.917338
outer loop
vertex -0.004722 0.010612 0.075980
vertex -0.004722 -0.010612 0.075980
vertex 0.096711 -0.003289 0.120000
endloop
endfacet
facet normal -0.398109 0.000000 0.917338
outer loop
vertex -0.004722 0.010612 0.075980
vertex 0.096711 -0.003289 0.120000
vertex 0.096711 0.003289 0.120000
endloop
endfacet
facet normal 0.452358 0.000000 -0.891837
outer loop
vertex 0.016502 -0.010612 0.075980
vertex 0.016502 0.010612 0.075980
vertex 0.103289 0.003289 0.120000
endloop
endfacet
facet normal 0.452357 0.000000 -0.891837
outer loop
vertex 0.016502 -0.010612 0.075980
vertex 0.103289 0.003289 0.120000
vertex 0.103289 -0.003289 0.120000
endloop
endfacet
facet normal 0.000000 -0.987935 -0.154870
outer loop
vertex -0.004110 0.010000 0.075980
vertex 0.015890 0.010000 0.075980
vertex 0.103099 0.003099 0.120000
endloop
endfacet
facet normal 0.000000 -0.987935 -0.154870
outer loop
vertex -0.004110 0.010000 0.075980
vertex 0.103099 0.003099 0.120000
vertex 0.096901 0.003099 0.120000
endloop
endfacet
facet normal -1.000000 0.000000 0.000000
outer loop
vertex 0.015890 0.010000 0.028727
vertex 0.015890 -0.010000 0.028727
vertex 0.015890 -0.010000 0.075980
endloop
endfacet
facet normal -1.000000 0.000000 0.000000
outer loop
vertex 0.015890 0.010000 0.028727
vertex 0.015890 -0.010000 0.075980
vertex 0.015890 0.010000 0.075980
endloop
endfacet
facet normal 0.000000 1.000000 0.000000
outer loop
vertex 0.016502 0.010612 0.028727
vertex -0.004722 0.010612 0.028727
vertex -0.004722 0.010612 0.075980
endloop
endfacet
facet normal 0.000000 1.000000 0.000000
outer loop
vertex 0.016502 0.010612 0.028727
vertex -0.004722 0.010612 0.075980
vertex 0.016502 0.010612 0.075980
endloop
endfacet
facet normal 1.000000 0.000000 0.000000
outer loop
vertex -0.004110 -0.010000 0.028727
vertex -0.004110 0.010000 0.028727
vertex -0.004110 0.010000 0.075980
endloop
endfacet
facet normal 1.000000 0.000000 0.000000
outer loop
vertex -0.004110 -0.010000 0.028727
vertex -0.004110 0.010000 0.075980
vertex -0.004110 -0.010000 0.075980
endloop
endfacet
facet normal 0.000000 1.000000 0.000000
outer loop
vertex 0.015890 -0.010000 0.028727
vertex -0.004110 -0.010000 0.028727
vertex -0.004110 -0.010000 0.075980
endloop
endfacet
facet normal 0.000000 1.000000 0.000000
outer loop
vertex 0.015890 -0.010000 0.028727
vertex -0.004110 -0.010000 0.075980
vertex 0.015890 -0.010000 0.075980
endloop
endfacet
facet normal -0.000028 0.000000 1.000000
outer loop
vertex 0.096901 -0.003099 0.120000
vertex 0.096901 0.003099 0.120000
vertex 0.096711 0.003289 0.120000
endloop
endfacet
facet normal 0.000000 0.000000 1.000000
outer loop
vertex 0.096901 -0.003099 0.120000
vertex 0.096711 0.003289 0.120000
vertex 0.096711 -0.003289 0.120000
endloop
endfacet
facet normal 0.000000 0.000000 1.000000
outer loop
vertex 0.103099 -0.003099 0.120000
vertex 0.096901 -0.003099 0.120000
vertex 0.096711 -0.003289 0.120000
endloop
endfacet
facet normal 0.000000 0.000000 1.000000
outer loop
vertex 0.103099 -0.003099 0.120000
vertex 0.096711 -0.003289 0.120000
vertex 0.103289 -0.003289 0.120000
endloop
endfacet
facet normal 0.000000 0.000000 1.000000
outer loop
vertex 0.096901 0.003099 0.120000
vertex 0.103099 0.003099 0.120000
vertex 0.103289 0.003289 0.120000
endloop
endfacet
facet normal 0.000000 0.000000 1.000000
outer loop
vertex 0.096901 0.003099 0.120000
vertex 0.103289 0.003289 0.120000
vertex 0.096711 0.003289 0.120000
endloop
endfacet
facet normal 0.000028 0.000000 1.000000
outer loop
vertex 0.103099 0.003099 0.120000
vertex 0.103099 -0.003099 0.120000
vertex 0.103289 -0.003289 0.120000
endloop
endfacet
facet normal 0.000000 0.000000 1.000000
outer loop
vertex 0.103099 0.003099 0.120000
vertex 0.103289 -0.003289 0.120000
vertex 0.103289 0.003289 0.120000
endloop
endfacet
facet normal 0.399508 0.000000 -0.916730
outer loop
vertex -0.004110 -0.010000 0.075980
vertex -0.004110 0.010000 0.075980
vertex 0.096901 0.003099 0.120000
endloop
endfacet
facet normal 0.399508 0.000000 -0.916730
outer loop
vertex -0.004110 -0.010000 0.075980
vertex 0.096901 0.003099 0.120000
vertex 0.096901 -0.003099 0.120000
endloop
endfacet
facet normal 0.000000 -0.986444 0.164099
outer loop
vertex -0.004722 -0.010612 0.075980
vertex 0.016502 -0.010612 0.075980
vertex 0.103289 -0.003289 0.120000
endloop
endfacet
facet normal 0.000000 -0.986444 0.164099
outer loop
vertex -0.004722 -0.010612 0.075980
vertex 0.103289 -0.003289 0.120000
vertex 0.096711 -0.003289 0.120000
endloop
endfacet
facet normal 0.000000 0.986444 0.164099
outer loop
vertex 0.016502 0.010612 0.075980
vertex -0.004722 0.010612 0.075980
vertex 0.096711 0.003289 0.120000
endloop
endfacet
facet normal 0.000000 0.986444 0.164099
outer loop
vertex 0.016502 0.010612 0.075980
vertex 0.096711 0.003289 0.120000
vertex 0.103289 0.003289 0.120000
endloop
endfacet
facet normal 0.000000 0.987935 -0.154870
outer loop
vertex 0.015890 -0.010000 0.075980
vertex -0.004110 -0.010000 0.075980
vertex 0.096901 -0.003099 0.120000
endloop
endfacet
facet normal 0.000000 0.987935 -0.154870
outer loop
vertex 0.015890 -0.010000 0.075980
vertex 0.096901 -0.003099 0.120000
vertex 0.103099 -0.003099 0.120000
endloop
endfacet
endsolid Exported from Blender-2.81 (sub 16)
